<?xml version="1.0" encoding="UTF-8" standalone="no"?>
<!-- Created with Inkscape (http://www.inkscape.org/) -->

<svg
   width="20.32mm"
   height="128.5mm"
   viewBox="0 0 20.320001 128.50002"
   version="1.1"
   id="svg8"
   inkscape:version="1.4 (e7c3feb1, 2024-10-09)"
   sodipodi:docname="Bap.svg"
   xml:space="preserve"
   xmlns:inkscape="http://www.inkscape.org/namespaces/inkscape"
   xmlns:sodipodi="http://sodipodi.sourceforge.net/DTD/sodipodi-0.dtd"
   xmlns="http://www.w3.org/2000/svg"
   xmlns:svg="http://www.w3.org/2000/svg"
   xmlns:rdf="http://www.w3.org/1999/02/22-rdf-syntax-ns#"
   xmlns:cc="http://creativecommons.org/ns#"
   xmlns:dc="http://purl.org/dc/elements/1.1/"><defs
     id="defs2"><linearGradient
       id="swatch30"
       inkscape:swatch="solid"><stop
         style="stop-color:#151515;stop-opacity:1;"
         offset="0"
         id="stop31" /></linearGradient></defs><sodipodi:namedview
     id="base"
     pagecolor="#ffffff"
     bordercolor="#666666"
     borderopacity="1.0"
     inkscape:pageopacity="0.0"
     inkscape:pageshadow="2"
     inkscape:zoom="1.4767509"
     inkscape:cx="-32.165208"
     inkscape:cy="382.59669"
     inkscape:document-units="mm"
     inkscape:current-layer="svg8"
     showgrid="true"
     units="mm"
     inkscape:snap-bbox="true"
     inkscape:snap-page="true"
     inkscape:bbox-nodes="false"
     inkscape:snap-bbox-edge-midpoints="false"
     inkscape:window-width="1440"
     inkscape:window-height="847"
     inkscape:window-x="0"
     inkscape:window-y="25"
     inkscape:window-maximized="0"
     inkscape:snap-bbox-midpoints="true"
     inkscape:snap-nodes="false"
     inkscape:showpageshadow="2"
     inkscape:pagecheckerboard="0"
     inkscape:deskcolor="#d1d1d1"><inkscape:grid
       id="grid1"
       units="mm"
       originx="0"
       originy="0"
       spacingx="2.5400005"
       spacingy="2.5400004"
       empcolor="#0099e5"
       empopacity="0.30196078"
       color="#e50000"
       opacity="0.14901961"
       empspacing="2"
       enabled="true"
       visible="true" /></sodipodi:namedview><metadata
     id="metadata5"><rdf:RDF><cc:Work
         rdf:about=""><dc:format>image/svg+xml</dc:format><dc:type
           rdf:resource="http://purl.org/dc/dcmitype/StillImage" /></cc:Work></rdf:RDF></metadata><g
     inkscape:label="Layer 1"
     inkscape:groupmode="layer"
     id="layer1"
     transform="translate(0,-168.49998)"><rect
       style="display:inline;fill:#e6e6e6;fill-opacity:1;stroke:none;stroke-width:0.443561;stroke-linecap:round;stroke-linejoin:round;stroke-opacity:1"
       id="rect10"
       width="20.294077"
       height="128.5"
       x="0"
       y="168.49998" /></g><path
     id="path1-2"
     style="fill:#00a4e9;fill-opacity:1;stroke-width:0.608131"
     inkscape:label="Azul"
     d="M 2.9946493 9.9239421 L 2.9646769 10.044865 C 2.9230029 10.212135 2.9253451 10.266379 2.9796631 10.421069 L 3.0266886 10.555945 L 4.1077596 10.623641 C 4.7021974 10.661441 5.5152026 10.669111 5.9148844 10.641211 C 6.3145617 10.613211 7.2926411 10.612144 8.0878784 10.639144 L 9.533785 10.688236 L 9.5901123 10.543026 L 9.6464396 10.398332 L 9.6123332 10.241752 L 9.57771 10.085173 L 8.1131999 10.026778 C 7.3077836 9.9943782 6.3297799 9.9906435 5.9391724 10.019543 C 5.5485604 10.047943 4.7261828 10.038439 4.1118937 9.9978394 L 2.9946493 9.9239421 z M 13.001274 24.318412 C 9.6776344 24.503742 7.808876 27.335098 8.639266 30.926278 C 8.714796 31.252898 8.7299147 31.630678 8.6857747 32.076078 C 8.6496167 32.440908 8.580449 33.148552 8.531779 33.648592 C 8.459421 34.392042 8.4205887 44.665394 8.4599487 52.639164 C 8.4637887 53.417464 8.4327191 54.564916 8.3912191 55.189396 C 8.2623931 57.128106 8.5240996 59.799398 8.9229696 60.615938 C 9.4065086 61.605798 10.870661 62.688796 12.246798 63.074186 C 14.227758 63.628956 17.087065 61.727585 17.827852 59.362785 C 18.096476 58.505265 18.199251 56.384107 18.020605 55.385767 C 17.941798 54.945367 17.845862 54.306208 17.807182 53.965698 C 17.768499 53.625198 17.654157 52.868911 17.552934 52.285181 C 17.324826 50.969771 17.171587 46.513663 17.28525 44.502193 C 17.326481 43.772533 17.407097 41.901941 17.464567 40.345341 C 17.62086 36.112161 17.68525 34.986805 17.793229 34.596855 C 17.927541 34.111805 17.9275 30.428662 17.793229 30.032792 C 17.737145 29.867442 17.607916 29.612865 17.505908 29.466935 C 17.339048 29.228215 17.32039 29.077658 17.32039 27.963668 C 17.32039 25.547968 15.68626 24.168702 13.001274 24.318412 z M 12.986804 81.383146 C 10.585467 81.383146 9.8763789 81.798662 8.9353719 83.758712 C 8.0627719 85.576282 7.9280454 86.85084 8.2480754 90.26064 C 8.3249584 91.07985 8.319273 91.358688 8.216036 91.763908 C 7.779781 93.476318 8.2850517 97.025332 9.1813517 98.541272 C 9.7142627 99.442602 10.859897 100.26132 11.825118 100.43108 C 15.289292 101.04034 17.182047 98.517481 16.792773 93.809261 C 16.740356 93.175281 16.935154 89.416486 17.097664 87.927966 C 17.613283 83.205156 16.469132 81.383146 12.986804 81.383146 z M 11.915035 109.79485 C 10.625477 109.90844 9.4162814 110.47736 8.8914469 111.44901 C 7.9945489 113.10949 7.6991655 114.66468 8.0351685 115.95468 C 8.3984415 117.34938 10.229376 119.03734 11.632365 119.27076 C 12.888196 119.47969 14.277305 119.07971 15.577861 118.13491 C 17.422485 116.79486 17.336294 112.79827 15.421281 110.87385 C 14.574594 110.02301 13.204593 109.68126 11.915035 109.79485 z " /><path
     id="path4"
     style="display:inline;fill:#ff4253;fill-opacity:1"
     d="m 18.744505,124.92392 -0.121957,0.10129 c -0.06709,0.0557 -0.121956,0.1557 -0.121956,0.2222 0,0.0665 -0.100839,0.18679 -0.224276,0.26769 l -0.224792,0.14728 -0.337964,-0.2341 -0.337964,-0.23461 h -0.358634 -0.358635 l -0.205672,0.21859 -0.205155,0.21859 0.05323,0.1385 c 0.07124,0.18563 0.177098,0.17399 0.371037,-0.0403 l 0.161231,-0.17828 h 0.197404 c 0.10845,0 0.292772,0.074 0.409794,0.16484 0.117023,0.0908 0.273149,0.18801 0.346749,0.21601 v 5.2e-4 c 0.0736,0.028 0.220988,0.0539 0.327628,0.0579 l 0.193787,0.007 0.269751,-0.22686 c 0.148349,-0.12483 0.295385,-0.30736 0.326595,-0.40566 l 0.05684,-0.1788 -0.108521,-0.13074 z m 0.116272,1.34049 -0.176217,0.34571 -0.176216,0.3452 -0.174667,0.046 c -0.177046,0.0463 -0.327249,-0.0184 -0.765328,-0.32814 l -0.241845,-0.17053 h -0.253215 c -0.282609,0 -0.695876,0.23576 -0.775146,0.44235 l -0.05168,0.13435 0.09457,0.0946 0.09457,0.0951 0.241846,-0.19017 c 0.319133,-0.25107 0.452975,-0.23828 0.930692,0.0868 l 0.401526,0.27337 0.298173,-0.0475 c 0.589975,-0.094 1.213289,-1.12706 0.680062,-1.12706 z"
     inkscape:label="Rojo" /><g
     inkscape:groupmode="layer"
     id="layer2"
     inkscape:label="components" /></svg>
