<?xml version="1.0" encoding="UTF-8" standalone="no"?>
<!-- Created with Inkscape (http://www.inkscape.org/) -->

<svg
   width="45.720001mm"
   height="128.5mm"
   viewBox="0 0 45.720005 128.50002"
   version="1.1"
   id="svg8"
   inkscape:version="1.4 (e7c3feb1, 2024-10-09)"
   sodipodi:docname="Bittorio.svg"
   xml:space="preserve"
   xmlns:inkscape="http://www.inkscape.org/namespaces/inkscape"
   xmlns:sodipodi="http://sodipodi.sourceforge.net/DTD/sodipodi-0.dtd"
   xmlns="http://www.w3.org/2000/svg"
   xmlns:svg="http://www.w3.org/2000/svg"
   xmlns:rdf="http://www.w3.org/1999/02/22-rdf-syntax-ns#"
   xmlns:cc="http://creativecommons.org/ns#"
   xmlns:dc="http://purl.org/dc/elements/1.1/"><defs
     id="defs2"><linearGradient
       id="swatch30"
       inkscape:swatch="solid"><stop
         style="stop-color:#151515;stop-opacity:1;"
         offset="0"
         id="stop31" /></linearGradient></defs><sodipodi:namedview
     id="base"
     pagecolor="#ffffff"
     bordercolor="#666666"
     borderopacity="1.0"
     inkscape:pageopacity="0.0"
     inkscape:pageshadow="2"
     inkscape:zoom="16.648965"
     inkscape:cx="165.1454"
     inkscape:cy="473.54295"
     inkscape:document-units="mm"
     inkscape:current-layer="svg8"
     showgrid="true"
     units="mm"
     inkscape:snap-bbox="true"
     inkscape:snap-page="true"
     inkscape:bbox-nodes="false"
     inkscape:snap-bbox-edge-midpoints="false"
     inkscape:window-width="1440"
     inkscape:window-height="847"
     inkscape:window-x="0"
     inkscape:window-y="25"
     inkscape:window-maximized="0"
     inkscape:snap-bbox-midpoints="true"
     inkscape:snap-nodes="false"
     inkscape:showpageshadow="2"
     inkscape:pagecheckerboard="0"
     inkscape:deskcolor="#d1d1d1"><inkscape:grid
       id="grid1"
       units="mm"
       originx="0"
       originy="0"
       spacingx="2.5400005"
       spacingy="2.5400004"
       empcolor="#0099e5"
       empopacity="0.30196078"
       color="#e50000"
       opacity="0.14901961"
       empspacing="2"
       enabled="true"
       visible="true" /></sodipodi:namedview><metadata
     id="metadata5"><rdf:RDF><cc:Work
         rdf:about=""><dc:format>image/svg+xml</dc:format><dc:type
           rdf:resource="http://purl.org/dc/dcmitype/StillImage" /></cc:Work></rdf:RDF></metadata><g
     inkscape:label="Layer 1"
     inkscape:groupmode="layer"
     id="layer1"
     transform="translate(0,-168.49998)"><rect
       style="display:inline;fill:#e6e6e6;fill-opacity:1;stroke:none;stroke-width:0.665646;stroke-linecap:round;stroke-linejoin:round;stroke-opacity:1"
       id="rect10"
       width="45.703503"
       height="128.5"
       x="0"
       y="168.49998" /></g><path
     id="path1-2"
     style="fill:#00a4e9;fill-opacity:1;stroke-width:1.01744"
     inkscape:label="Azul"
     d="M 2.8623576 9.2676514 L 2.778125 9.3885742 C 2.6614989 9.5558442 2.6678759 9.6095719 2.8199829 9.7642619 L 2.9522746 9.8996541 L 5.9774129 9.9673503 C 7.6413087 10.00515 9.9177853 10.01282 11.036536 9.9849202 C 12.155287 9.9569202 14.892378 9.9558532 17.118335 9.9828532 L 21.165633 10.031946 L 21.323246 9.886735 L 21.480859 9.742041 L 21.385258 9.5854614 L 21.28914 9.4288818 L 17.190165 9.3704875 C 14.93571 9.3380875 12.196555 9.3343528 11.103198 9.3632528 C 10.009834 9.3916528 7.7082474 9.3821487 5.9887817 9.3415487 L 2.8623576 9.2676514 z M 17.342094 61.80708 C 14.894952 61.909829 12.69077 64.276813 12.814205 67.703361 C 12.896015 69.974381 14.245943 71.208829 16.951937 71.487109 C 21.216669 71.925689 24.580763 66.846259 21.744409 64.250859 C 21.531769 64.056289 21.032004 63.57617 20.633883 63.18374 C 19.61709 62.1815 18.454431 61.760376 17.342094 61.80708 z M 38.126355 62.363635 C 35.10595 62.213868 32.301777 65.168107 33.40623 68.761694 C 33.992206 70.668304 34.484412 71.033241 37.161039 71.546021 C 38.543305 71.810831 40.202738 71.368735 40.838334 70.566235 C 40.980774 70.386385 41.22248 70.105651 41.375769 69.942501 C 41.674946 69.624091 42.314744 68.653211 42.491463 68.249581 C 42.998123 67.092361 42.27145 64.716156 41.08173 63.639526 C 40.1636 62.808666 39.133157 62.413558 38.126355 62.363635 z M 17.813383 76.350895 C 15.462512 76.338544 13.060185 78.146375 13.060185 81.367126 C 13.060185 83.466996 14.286843 84.969526 16.642395 85.756006 C 19.804634 86.811836 22.948711 83.393731 22.051884 79.874711 C 21.439386 77.471353 19.641838 76.360502 17.813383 76.350895 z M 37.506755 76.733301 C 36.087923 76.806462 34.664008 77.450072 33.509066 78.631376 C 32.453222 79.711316 32.398863 82.441859 33.405196 83.831059 C 33.84926 84.444079 35.517942 85.486706 36.378141 85.688826 C 37.633177 85.983726 38.77348 85.731297 40.344824 84.810327 C 42.795957 83.373707 43.091905 79.374215 40.867273 77.745125 C 40.029221 77.131423 39.081978 76.798982 38.113953 76.736918 C 37.912281 76.723988 37.709445 76.722849 37.506755 76.733301 z M 28.236003 90.750016 C 28.100127 90.744267 27.959841 90.746752 27.814323 90.756734 C 27.426275 90.783353 26.999637 90.864343 26.51156 90.994446 C 21.819378 92.245196 21.428866 99.165323 26.017533 99.748433 C 31.360175 100.42736 34.426445 95.647356 30.88442 92.161816 C 29.931469 91.224061 29.187131 90.790263 28.236003 90.750016 z M 37.754285 100.11534 C 34.522261 100.11332 32.834713 101.92581 32.978866 105.24422 C 33.065894 107.24762 34.632646 109.03678 36.541956 109.31271 C 39.413672 109.72772 41.795581 108.41333 42.151949 106.21677 C 42.793146 102.26459 41.245599 100.11734 37.754285 100.11534 z M 12.576493 100.13291 C 11.511022 100.13196 10.305159 100.58261 9.3456828 101.38399 C 6.3173008 103.91338 7.6265791 108.97077 11.398787 109.31477 C 17.786049 109.89725 19.617561 102.32148 13.581083 100.28794 C 13.271483 100.18364 12.93165 100.13322 12.576493 100.13291 z " /><path
     id="path3"
     style="fill:#ff4253;fill-opacity:1"
     inkscape:label="Rojo"
     d="m 14.311788,110.98496 c -1.073681,-0.0345 -1.717156,-0.021 -2.800346,0.0129 -2.3452519,0.0734 -2.4462444,0.082 -4.5092854,0.36431 -2.698641,0.36932 -3.7172673,1.24221 -4.3738933,3.74913 -0.767154,2.92891 0.3449042,4.89246 3.3258952,5.87148 2.223485,0.73024 4.5161775,1.00223 9.7596115,1.15755 2.710117,0.0803 10.096677,0.0244 12.426114,-0.094 0.875587,-0.0446 2.664861,-0.0827 3.975985,-0.0837 6.930213,-0.007 8.24519,-0.28177 9.450069,-1.97352 1.94065,-2.72483 1.798351,-5.71631 -0.336413,-7.07502 -0.243218,-0.1548 -0.609257,-0.40763 -0.813387,-0.56172 -0.90959,-0.6866 -1.786172,-0.80945 -6.220809,-0.87075 -1.919778,-0.0265 -4.724223,-0.0919 -6.232178,-0.14573 -1.507956,-0.0538 -3.617407,-0.0721 -4.687569,-0.0403 -1.084089,0.0322 -2.67059,0.017 -3.58221,-0.0346 -2.804121,-0.15875 -4.307904,-0.24149 -5.381584,-0.27595 z m 29.912887,13.94668 -0.121957,0.10129 c -0.06709,0.0557 -0.121956,0.1557 -0.121956,0.2222 0,0.0665 -0.100839,0.18679 -0.224276,0.26769 l -0.224792,0.14728 -0.337964,-0.2341 -0.337964,-0.23461 h -0.358634 -0.358635 l -0.205672,0.21859 -0.205155,0.21859 0.05323,0.1385 c 0.07124,0.18563 0.177098,0.17399 0.371037,-0.0403 l 0.161231,-0.17828 h 0.197404 c 0.10845,0 0.292772,0.074 0.409794,0.16484 0.117023,0.0908 0.273149,0.18801 0.346749,0.21601 v 5.2e-4 c 0.0736,0.028 0.220988,0.0539 0.327628,0.0579 l 0.193787,0.007 0.269751,-0.22686 c 0.148349,-0.12483 0.295385,-0.30736 0.326595,-0.40566 l 0.05684,-0.1788 -0.108521,-0.13074 z m 0.116272,1.34049 -0.176217,0.34571 -0.176216,0.3452 -0.174667,0.046 c -0.177046,0.0463 -0.327249,-0.0184 -0.765328,-0.32814 l -0.241845,-0.17053 h -0.253215 c -0.282609,0 -0.695876,0.23576 -0.775146,0.44235 l -0.05168,0.13435 0.09457,0.0946 0.09457,0.0951 0.241846,-0.19017 c 0.319133,-0.25107 0.452975,-0.23828 0.930692,0.0868 l 0.401526,0.27337 0.298173,-0.0475 c 0.589975,-0.094 1.213289,-1.12706 0.680062,-1.12706 z" /><path
     id="path2"
     style="display:inline;fill:#000000"
     inkscape:label="Negro"
     d="M 23.641451 14.922603 C 22.674243 14.889813 22.255454 15.930926 22.805326 17.001546 C 22.877627 17.142276 22.838109 17.157374 22.417236 17.150374 C 20.108356 17.111154 20.189661 17.06067 20.167761 18.53892 C 20.149508 19.77122 20.266053 19.688658 18.517216 19.711458 L 17.916219 19.719727 L 17.74517 20.095414 C 17.491621 20.654004 17.50287 21.607458 17.764807 21.790918 C 18.049669 21.990478 17.992296 22.00454 16.594853 22.08134 L 15.315861 22.151619 L 15.113806 22.558313 C 14.949862 22.888523 14.929039 23.010192 15.003219 23.205302 C 15.402123 24.254492 15.13918 24.584029 13.903027 24.584029 C 12.597945 24.584029 12.282192 25.026804 12.599748 26.410274 C 12.705462 26.870804 12.647486 26.96401 12.262301 26.95391 C 11.836589 26.9428 10.591402 27.04624 10.393681 27.10894 C 10.168231 27.1805 10.119256 27.449112 10.154936 28.427722 L 10.185942 29.271598 L 9.7435913 29.273665 C 7.7205373 29.281445 6.9906443 30.073342 7.5793823 31.621842 C 7.7006003 31.940712 7.7550671 31.923393 6.4616211 31.977893 C 4.9327531 32.042263 5.0829801 31.637026 5.0627401 35.751306 C 5.0552881 37.266506 5.1324349 37.167158 4.0390299 37.063888 C 2.8070879 36.947538 2.8101143 36.94238 2.8628743 39.26582 C 2.9149333 41.55841 3.1027179 41.920855 4.2364339 41.917855 C 4.9665849 41.915735 5.0822462 41.705813 5.0952962 40.357743 L 5.1004639 39.813074 L 5.5205933 39.763464 C 6.8281483 39.609324 14.889397 39.531011 16.155603 39.660111 C 17.540188 39.801281 17.928916 39.495739 17.761707 38.397139 C 17.704863 38.023639 17.658549 37.568768 17.65887 37.386348 C 17.659893 36.805758 17.462871 36.701119 16.37006 36.701119 L 15.4342 36.701119 L 15.496729 35.794714 C 15.531052 35.296114 15.577265 34.868168 15.599565 34.843868 C 15.621869 34.819568 17.158837 34.799426 19.015377 34.799426 L 22.390881 34.799426 L 22.390881 35.883081 L 22.390881 36.966219 L 21.816239 36.97242 C 19.918853 36.99373 19.958988 36.936618 19.958988 39.623938 C 19.958988 40.888528 19.924626 41.75273 19.873206 41.78453 C 19.826075 41.81363 19.358426 41.852646 18.833993 41.871346 C 17.372983 41.923556 17.350277 41.9496 17.445447 43.49502 L 17.507975 44.508911 L 16.500285 44.447416 C 15.097883 44.361726 14.905752 44.583214 14.932422 46.252474 L 14.944307 47.004366 L 13.714925 47.048291 C 13.03872 47.072691 12.072988 47.06137 11.568803 47.02297 C 10.069485 46.90873 10.030813 46.986505 10.070703 50.048625 L 10.097575 52.110514 L 9.5761597 52.055737 C 9.2893227 52.025737 8.1649522 52.00096 7.0776042 52.00096 L 5.1004639 52.00096 L 5.1020142 50.519914 C 5.1027542 49.705134 5.1334971 49.085454 5.1702271 49.143254 C 5.2877441 49.328064 5.7433586 49.448471 6.5153646 49.498271 C 7.6486356 49.571411 7.6970487 49.515291 7.7540487 48.051331 L 7.7979736 46.915483 L 8.2196533 46.945972 C 9.5724203 47.042892 9.9647664 46.769786 9.9647664 45.731576 C 9.9647664 44.526706 9.8494815 44.407059 8.6051595 44.319259 L 7.8005575 44.262415 L 7.738029 43.908431 C 7.703649 43.713861 7.6731328 43.285935 7.6703328 42.957585 C 7.6635288 42.160635 7.5507656 42.050447 6.6600586 41.966947 C 5.1690196 41.827227 4.985401 42.14089 5.032251 44.74869 C 5.071199 46.91652 5.0367158 47.352561 4.8353638 47.223991 C 4.6338978 47.095381 3.5417246 47.120278 3.2044556 47.261198 C 2.7789196 47.438998 2.7742623 47.483199 2.8520223 50.619649 C 2.8907423 52.182149 2.9127581 53.497485 2.9005981 53.542985 C 2.8333081 53.794795 3.011629 54.057969 3.356901 54.216329 C 3.669464 54.359719 3.8656359 54.380803 4.5697469 54.345003 C 5.0318629 54.321503 7.5127296 54.293275 10.082589 54.282475 C 14.178845 54.265325 14.763772 54.246415 14.827002 54.127445 C 14.931566 53.930705 15.035565 52.674943 14.965495 52.454163 C 14.869673 52.152223 14.607736 52.076821 13.585217 52.055221 C 12.425717 52.030691 12.528942 52.132273 12.632821 51.117293 C 12.680141 50.655173 12.704874 50.127682 12.688114 49.945272 L 12.657625 49.613509 L 13.323218 49.606791 C 13.689331 49.603091 14.694373 49.59257 15.556673 49.58457 L 17.124536 49.569067 L 17.369999 49.324121 C 17.600268 49.094011 17.618218 49.019438 17.665588 48.106108 C 17.727532 46.911698 17.716744 46.923682 18.744592 46.912382 C 19.975828 46.898782 19.947757 46.929343 20.023067 45.522803 L 20.07371 44.571956 L 20.878829 44.553353 C 22.302218 44.520253 22.47793 44.514693 22.586218 44.499093 C 22.820607 44.465223 22.876799 43.818066 22.819279 41.818636 L 22.761401 39.816691 L 23.75824 39.782585 C 25.101666 39.736605 25.176117 39.657102 25.176758 38.270532 L 25.177275 37.319686 L 27.382308 37.319686 C 30.292269 37.319686 30.288306 37.321802 30.196606 35.713582 L 30.152165 34.931718 L 36.000387 34.918799 C 39.216927 34.912199 41.972485 34.9149 42.124044 34.925 C 42.754007 34.96711 42.942697 34.137967 42.605668 32.809367 C 42.45802 32.227367 42.370088 32.190283 41.133407 32.190283 L 40.053886 32.190283 L 39.991874 31.488517 C 39.957664 31.102427 39.955503 30.63291 39.987223 30.44517 C 40.076723 29.91542 39.874386 29.787647 38.818302 29.707747 C 37.53651 29.610797 37.430595 29.719293 37.457145 31.096293 C 37.478211 32.188693 37.737085 32.079327 34.948254 32.157727 L 32.823836 32.217155 L 32.699813 31.96084 C 32.617955 31.79134 32.572237 31.356221 32.564937 30.679781 L 32.553569 29.655554 L 34.813379 29.695862 C 37.603776 29.745382 37.497799 29.787234 37.546029 28.612724 C 37.601401 27.264404 37.467649 27.139167 35.905302 27.078967 C 34.848374 27.038247 34.826046 27.032905 34.920866 26.855725 C 35.668258 25.459205 34.435681 24.22848 33.004187 24.94163 L 32.739087 25.073405 L 32.739087 26.067143 L 32.739087 27.060881 L 32.120003 27.0769 C 31.779497 27.0857 31.247122 27.096121 30.93713 27.099121 C 30.049028 27.108471 29.909042 27.431703 30.015739 29.227673 C 30.024409 29.373613 30.010463 29.982432 29.984733 30.580562 C 29.945788 31.485872 29.961955 31.704205 30.080334 31.884875 L 30.222445 32.101917 L 28.993062 32.101917 C 27.508827 32.101917 27.573211 32.051147 27.503231 33.286857 C 27.460754 34.036947 27.422029 34.229525 27.308411 34.263025 C 27.083935 34.329105 25.153258 34.477791 23.879679 34.527091 L 22.714893 34.57205 L 22.791374 34.305916 C 23.301129 32.528506 22.835004 31.850434 21.09742 31.840434 C 20.197968 31.835294 20.020373 31.537525 20.175513 30.295825 L 20.237008 29.802315 L 21.53512 29.802315 C 22.249115 29.802225 23.390387 29.74294 24.071399 29.67054 C 24.752411 29.59821 25.668107 29.538432 26.1059 29.537732 C 27.364537 29.535712 27.683849 29.221485 27.522351 28.144535 C 27.378138 27.182855 27.07687 26.972514 25.847001 26.972514 C 25.010027 26.972514 25.005273 26.97127 25.080123 26.77356 C 25.214363 26.41898 25.276173 25.347868 25.188643 24.894088 C 25.077862 24.319798 24.711366 24.378266 28.648381 24.338566 C 30.704885 24.317826 32.18277 24.268193 32.2802 24.216093 C 32.584977 24.052983 32.720347 23.559072 32.601111 23.047172 C 32.420264 22.270742 32.296713 22.197377 31.153654 22.190377 C 30.614892 22.186977 30.094425 22.150011 29.997135 22.108211 C 29.899845 22.066411 29.86352 22.029046 29.91652 22.026046 C 30.183429 22.008826 30.341307 20.585942 30.136145 20.046322 C 29.932316 19.510262 28.066112 19.568436 27.703219 20.122286 C 27.534826 20.379276 27.523564 21.307168 27.683582 21.754228 L 27.794169 22.06377 L 25.346257 22.045166 C 22.284788 22.021886 22.490936 21.854717 22.709725 24.186637 C 22.718855 24.283917 22.695215 24.843016 22.657015 25.429456 C 22.607465 26.190136 22.616828 26.550897 22.690088 26.687777 C 22.842869 26.973287 22.61257 27.000676 20.507792 26.946676 C 17.600513 26.872086 17.430338 26.933981 17.525028 28.031881 C 17.560778 28.446431 17.595643 29.471941 17.602543 30.310811 L 17.614945 31.835783 L 16.951937 31.847668 C 16.587109 31.854068 15.547661 31.850283 14.642 31.838883 C 12.245984 31.808633 12.427172 31.576398 12.500012 34.580318 L 12.556856 36.925911 L 10.067086 36.947616 L 7.5767985 36.96932 L 7.5809326 36.503715 C 7.5832026 36.247495 7.6329902 35.782947 7.6915202 35.471737 L 7.7979736 34.906396 L 8.9901489 34.874357 C 10.593135 34.831677 10.642509 34.773808 10.734229 32.831588 L 10.77712 31.925183 L 11.32179 31.90968 C 12.053365 31.88858 12.10826 31.891557 12.279354 31.964457 C 12.62122 32.110087 12.795085 31.728873 12.795085 30.832743 C 12.795085 29.617123 12.958361 29.263516 13.374894 29.578556 C 13.594221 29.744116 13.77881 29.74512 14.286466 29.58269 C 14.511892 29.51056 14.795826 29.432458 14.917436 29.409058 C 15.375336 29.321128 15.57901 27.997903 15.235763 27.339933 C 15.056222 26.995743 15.091602 26.916801 15.360819 27.060881 C 16.531886 27.687621 17.747754 27.053752 17.747754 25.816512 C 17.747754 24.336102 17.741617 24.349708 18.396293 24.386108 C 19.736713 24.460568 20.397188 24.079033 20.399788 23.229073 C 20.400582 22.969473 20.45287 22.750734 20.53363 22.669934 C 20.606594 22.596964 20.666439 22.455285 20.666439 22.355225 C 20.666439 22.183125 20.705117 22.175881 21.383708 22.215181 C 22.479202 22.278601 23.08503 21.18123 22.623425 19.96984 L 22.533508 19.733679 L 23.183081 19.673218 C 23.811472 19.614348 24.933641 19.647587 26.513627 19.772437 C 27.466642 19.847747 27.549781 19.782268 27.7797 18.775598 C 28.071573 17.497658 27.691971 17.17601 25.87594 17.16071 L 25.204146 17.154508 L 25.244971 16.292029 C 25.299235 15.152539 25.087362 14.971603 23.641451 14.922603 z M 31.36191 36.947099 C 30.001516 36.970659 29.953046 37.030115 29.95321 38.674125 L 29.95321 39.751579 L 28.11818 39.695768 C 27.108764 39.664968 26.103621 39.631037 25.884725 39.620837 C 24.92741 39.576347 24.98459 39.328615 24.99279 43.468665 C 24.997 45.599785 24.967145 46.969682 24.915275 47.001782 C 24.86868 47.030582 23.810067 47.063563 22.562964 47.075163 C 19.750029 47.101333 20.058011 46.774971 20.076811 49.709111 C 20.089628 51.709591 20.07416 52.008536 19.954854 52.046436 C 19.879615 52.070236 19.439014 52.084475 18.975586 52.078475 C 17.731861 52.061195 17.62143 52.175053 17.6413 53.460303 C 17.653677 54.260823 17.75955 54.357742 18.638656 54.373942 C 18.990109 54.380442 19.288057 54.396499 19.301147 54.409599 L 19.301664 54.409599 C 19.323969 54.431899 21.128675 54.427679 26.638684 54.393579 C 29.645041 54.374949 29.772127 54.345006 29.774927 53.654606 C 29.776035 53.379636 30.017246 52.09911 30.070516 52.08571 C 30.078778 52.08361 31.093474 52.047194 32.325159 52.005094 C 34.812263 51.920014 34.960679 51.882905 34.883659 51.358105 C 34.863559 51.221095 34.880336 51.088133 34.920866 51.063033 C 34.961406 51.037983 34.994246 50.124793 34.994246 49.033183 L 34.994246 47.048291 L 36.038627 47.048291 C 37.479462 47.048291 37.647831 46.894783 37.647831 45.578613 L 37.647831 44.767293 L 38.996586 44.707349 C 39.738402 44.674349 40.736785 44.634815 41.215572 44.620015 C 42.411655 44.582985 42.362341 44.657714 42.442371 42.778784 C 42.570375 39.773384 42.480281 39.477829 41.464653 39.577429 C 41.092249 39.613929 40.672048 39.652179 40.530859 39.662179 C 40.106459 39.692309 40.035799 39.890444 40.035799 41.050724 L 40.035799 42.095105 L 37.974943 42.095105 C 36.835296 42.095105 35.876841 42.131554 35.830371 42.176754 C 35.78416 42.221604 35.626969 42.271441 35.481038 42.287341 C 35.069014 42.332251 34.906049 42.746832 34.90588 43.753402 L 34.90588 44.57144 L 33.890955 44.57144 C 32.507712 44.57144 32.503673 44.580223 32.377352 47.942293 L 32.315857 49.588188 L 31.20068 49.636247 C 30.587474 49.662707 29.642391 49.662947 29.100549 49.636247 C 28.419847 49.602747 28.07836 49.618973 27.99519 49.689473 C 27.928985 49.745613 27.765158 49.873921 27.631388 49.974211 C 27.390569 50.154751 27.387992 50.166709 27.387992 51.180339 L 27.387992 52.204049 L 26.658838 52.149272 C 26.257527 52.119332 25.142044 52.067433 24.180436 52.034033 C 22.639865 51.980603 22.436667 51.956845 22.471497 51.832495 C 22.493237 51.754875 22.537649 51.25084 22.570199 50.71215 L 22.629626 49.732365 L 23.837305 49.618677 C 24.501398 49.556127 25.12391 49.492483 25.2212 49.477083 C 25.318487 49.461783 25.823132 49.446977 26.342578 49.442977 C 27.584358 49.434337 27.565243 49.454639 27.565243 48.147449 L 27.565243 47.136658 L 28.653548 47.136658 C 30.097994 47.136658 30.070649 47.159186 30.138729 45.927946 C 30.216439 44.522486 30.245828 44.550643 28.756384 44.586943 L 27.572477 44.615881 L 27.576095 43.456262 L 27.579195 42.296643 L 28.788424 42.236698 C 29.453331 42.203798 30.481104 42.148292 31.072522 42.113192 C 31.663939 42.078092 32.659081 42.072273 33.283757 42.100273 C 34.830498 42.169743 34.976596 42.038008 34.959106 40.591838 L 34.949805 39.839945 L 34.640263 39.735559 C 34.43746 39.667159 34.020872 39.648932 33.432068 39.682332 L 32.533415 39.733492 L 32.581474 38.50411 C 32.643003 36.91979 32.646525 36.924799 31.36191 36.947099 z M 39.125777 47.185234 C 39.005141 47.185746 38.865882 47.191089 38.705648 47.193502 C 38.064167 47.203172 37.846467 47.240832 37.672636 47.370752 L 37.452494 47.535083 L 37.461796 49.701876 C 37.473215 52.339036 37.553784 54.201414 37.665918 54.418384 C 37.750582 54.582654 38.317166 54.583048 39.442037 54.420968 C 40.064955 54.331218 40.060187 54.361874 39.986707 50.801034 C 39.917134 47.429781 39.970231 47.181646 39.125777 47.185234 z " /><g
     inkscape:groupmode="layer"
     id="layer2"
     inkscape:label="components" /></svg>
