<?xml version="1.0" encoding="UTF-8" standalone="no"?>
<!-- Created with Inkscape (http://www.inkscape.org/) -->

<svg
   width="60.959999mm"
   height="128.5mm"
   viewBox="0 0 60.960004 128.50002"
   version="1.1"
   id="svg8"
   inkscape:version="1.4 (e7c3feb1, 2024-10-09)"
   sodipodi:docname="Hiller.svg"
   xml:space="preserve"
   xmlns:inkscape="http://www.inkscape.org/namespaces/inkscape"
   xmlns:sodipodi="http://sodipodi.sourceforge.net/DTD/sodipodi-0.dtd"
   xmlns="http://www.w3.org/2000/svg"
   xmlns:svg="http://www.w3.org/2000/svg"
   xmlns:rdf="http://www.w3.org/1999/02/22-rdf-syntax-ns#"
   xmlns:cc="http://creativecommons.org/ns#"
   xmlns:dc="http://purl.org/dc/elements/1.1/"><defs
     id="defs2"><linearGradient
       id="swatch30"
       inkscape:swatch="solid"><stop
         style="stop-color:#151515;stop-opacity:1;"
         offset="0"
         id="stop31" /></linearGradient></defs><sodipodi:namedview
     id="base"
     pagecolor="#ffffff"
     bordercolor="#666666"
     borderopacity="1.0"
     inkscape:pageopacity="0.0"
     inkscape:pageshadow="2"
     inkscape:zoom="1.6594369"
     inkscape:cx="18.078421"
     inkscape:cy="403.75141"
     inkscape:document-units="mm"
     inkscape:current-layer="svg8"
     showgrid="true"
     units="mm"
     inkscape:snap-bbox="true"
     inkscape:snap-page="true"
     inkscape:bbox-nodes="false"
     inkscape:snap-bbox-edge-midpoints="false"
     inkscape:window-width="1440"
     inkscape:window-height="847"
     inkscape:window-x="0"
     inkscape:window-y="25"
     inkscape:window-maximized="1"
     inkscape:snap-bbox-midpoints="true"
     inkscape:snap-nodes="false"
     inkscape:showpageshadow="2"
     inkscape:pagecheckerboard="0"
     inkscape:deskcolor="#d1d1d1"><inkscape:grid
       id="grid1"
       units="mm"
       originx="0"
       originy="0"
       spacingx="2.5400005"
       spacingy="2.5400004"
       empcolor="#0099e5"
       empopacity="0.30196078"
       color="#e50000"
       opacity="0.14901961"
       empspacing="2"
       enabled="true"
       visible="true" /></sodipodi:namedview><metadata
     id="metadata5"><rdf:RDF><cc:Work
         rdf:about=""><dc:format>image/svg+xml</dc:format><dc:type
           rdf:resource="http://purl.org/dc/dcmitype/StillImage" /></cc:Work></rdf:RDF></metadata><g
     inkscape:label="Layer 1"
     inkscape:groupmode="layer"
     id="layer1"
     transform="translate(0,-168.49998)"><rect
       style="display:inline;fill:#e6e6e6;fill-opacity:1;stroke:none;stroke-width:0.76876;stroke-linecap:round;stroke-linejoin:round;stroke-opacity:1"
       id="rect10"
       width="60.959999"
       height="128.5"
       x="0"
       y="168.49998" /></g><path
     id="path1-2"
     style="fill:#00a4e9;fill-opacity:1;stroke-width:0.900114"
     inkscape:label="Azul"
     d="M 2.8990479 177.61829 L 2.8334188 177.73921 C 2.7421358 177.90648 2.7469259 177.96072 2.8659749 178.11541 L 2.9693278 178.25029 L 5.3371419 178.31799 C 6.6394283 178.35579 8.4214918 178.36346 9.2971069 178.33556 C 10.172722 178.30756 12.314826 178.30649 14.057023 178.33349 L 17.224272 178.3831 L 17.347778 178.23789 L 17.471285 178.09319 L 17.396354 177.93661 L 17.321423 177.78003 L 14.112834 177.72112 C 12.348333 177.68872 10.204524 177.6855 9.3487834 177.7144 C 8.4930364 177.7428 6.6917051 177.7333 5.3459269 177.6927 L 2.8990479 177.61829 z M 24.018689 188.17682 C 21.55348 188.08241 18.960083 189.68435 18.960083 192.67422 L 18.960083 193.87311 L 19.293913 194.54904 C 19.766193 195.50463 20.703684 196.23397 22.006925 196.6595 C 22.77084 196.90896 22.856486 197.00385 22.316467 197.00315 C 22.075681 197.00283 21.201927 197.0492 20.374984 197.1065 C 19.069513 197.19694 18.718505 197.19148 17.71158 197.06309 C 16.984928 196.97049 15.895025 196.91368 14.792896 196.91168 C 13.205465 196.90859 10.298615 196.7298 10.197827 196.62901 C 10.175731 196.60691 10.450903 196.40022 10.809159 196.16961 C 11.203748 195.91561 11.537929 195.6223 11.656653 195.42599 C 12.812439 193.51487 12.943662 193.18379 12.942362 192.18329 C 12.938622 189.27395 10.327059 187.62147 6.9070719 188.3644 C 2.6513036 189.28889 2.7977208 195.6304 7.1024089 196.82797 L 7.6269246 196.97421 L 7.025411 197.12511 C 3.9075351 197.9083 2.3420227 201.91073 4.1067261 204.5877 C 5.0958696 206.08817 8.3636374 207.12712 10.77867 206.70902 C 11.362579 206.60802 11.836763 206.59457 12.901538 206.64907 C 16.636172 206.84034 17.441533 206.91839 19.180741 207.25885 L 19.180741 207.25937 C 20.475977 207.51292 23.948925 207.27405 24.743709 206.87697 C 28.318253 205.09112 29.714842 201.52937 27.687716 199.36941 C 27.448076 199.11407 27.183154 198.76555 27.098604 198.5953 C 26.685767 197.76403 25.737111 197.19601 24.721488 197.17161 C 24.056366 197.15562 23.845173 197.04586 24.34425 196.97576 C 25.34533 196.83504 26.599281 196.00863 27.314612 195.01774 C 28.304197 193.64695 28.521093 192.86579 28.25719 191.62105 C 27.775728 189.35015 25.936073 188.25024 24.018689 188.17682 z M 53.477873 212.06063 C 48.755038 212.39855 46.866677 219.58652 50.813953 222.20109 C 51.272534 222.50484 51.281802 222.49675 50.256364 222.676 C 49.775808 222.76 49.36742 222.77905 49.026982 222.73285 C 48.746572 222.69475 47.135761 222.66384 45.447355 222.66412 C 41.967592 222.66468 41.85485 222.65359 41.485323 222.26827 L 41.217122 221.9887 L 41.873413 221.43422 C 44.141591 219.51792 43.903603 214.69612 41.479639 213.45951 C 39.03729 212.21352 35.944572 212.81628 34.347774 214.84961 C 32.895102 216.69941 33.736847 220.74507 35.803499 221.84659 C 36.44832 222.19027 36.447337 222.11787 35.814351 222.50857 C 34.77226 223.15179 34.030126 224.32539 33.855815 225.60657 C 33.468137 228.45597 34.928565 230.6388 37.705192 231.36023 C 38.187997 231.48567 38.602209 231.60719 38.625549 231.63049 L 38.625549 231.63101 C 38.723215 231.72863 40.516825 231.66685 40.786141 231.5566 C 40.982088 231.47639 41.607901 231.43475 42.795321 231.42275 C 43.743873 231.41325 44.957749 231.37102 45.49283 231.32922 C 46.421138 231.25669 51.204991 231.41112 52.170459 231.54471 C 54.595821 231.88028 57.300122 230.20852 57.884839 228.01263 C 58.463982 225.83768 57.27833 223.19696 55.416772 222.51529 L 54.993026 222.35974 L 55.717529 221.95305 C 57.187367 221.12783 57.541529 220.65326 57.880188 219.054 C 58.252007 217.29815 57.978379 215.88181 57.069902 214.85891 C 56.855994 214.61806 56.680778 214.34116 56.680778 214.24396 C 56.680778 213.11116 54.98185 211.95302 53.477873 212.06063 z M 7.7974569 237.16297 C 7.400421 237.16525 7.004669 237.22749 6.621818 237.35934 C 2.2453184 238.86664 1.7907182 244.64338 5.9417562 245.99913 L 6.5437866 246.1955 L 6.0048014 246.51434 C 0.54448408 249.74452 3.1435321 257.888 9.0728312 256.12719 C 9.3939316 256.03184 9.8456609 256.0003 10.658781 256.0166 C 11.284099 256.0292 13.584415 255.98987 15.770614 255.92927 L 19.745565 255.8192 L 20.7238 256.09515 C 21.261649 256.24697 21.940372 256.40095 22.232235 256.43725 C 25.549761 256.85016 28.659351 253.47556 27.817424 250.37612 C 27.751781 250.13446 27.627001 249.65829 27.539921 249.31779 C 27.452844 248.97728 27.327305 248.49431 27.261385 248.24447 C 27.058177 247.47435 26.369655 246.83092 25.332304 246.44303 L 25.071338 246.34587 L 25.513171 246.09369 C 28.495112 244.39063 28.649721 239.81278 25.770003 238.49054 C 25.526784 238.37887 24.95199 238.10306 24.492562 237.87714 C 23.079163 237.18213 21.911735 237.26986 20.355863 238.18823 C 19.083002 238.93956 18.79687 239.37071 18.516699 240.96274 C 18.077653 243.45755 18.736044 245.16905 20.461283 246.0198 C 21.147439 246.35816 21.140142 246.32851 20.615796 246.67609 C 20.257366 246.91369 20.09126 246.9606 19.446358 247.0063 C 19.032886 247.03557 18.336443 247.14133 17.898649 247.24143 C 16.481448 247.56545 13.337394 247.59555 12.290206 247.29517 C 11.843692 247.16709 11.404785 247.06211 11.314555 247.06211 C 11.224327 247.06211 10.947131 246.92552 10.698572 246.75825 C 10.450012 246.59098 10.107695 246.40366 9.9378947 246.34226 C 9.6273172 246.22995 9.5239136 246.08956 9.7518595 246.08956 C 10.453786 246.08956 12.330742 243.91243 12.68398 242.68873 C 13.438951 240.07333 10.576708 237.14706 7.7974569 237.16297 z M 38.318075 262.21829 C 33.340753 261.86842 31.493609 269.60443 36.174536 271.19552 L 36.599316 271.34021 L 35.944576 271.67714 C 30.480546 274.48991 34.59733 283.01436 40.230619 280.55206 C 41.693468 279.91265 44.957831 279.57606 47.74799 279.77691 C 48.501968 279.83121 49.377424 279.888 49.693608 279.903 C 50.153169 279.92476 50.357608 279.98506 50.711117 280.20427 C 51.195273 280.50449 51.811671 280.72752 52.486202 280.84609 C 56.374334 281.52952 59.833507 276.48577 57.625423 273.35249 C 56.868501 272.27841 56.095682 271.64666 55.221436 271.38724 C 55.026861 271.32952 54.808871 271.26295 54.736711 271.23945 C 54.660876 271.2148 54.81618 271.11143 55.105164 270.99398 C 59.136277 269.35561 58.763054 263.21079 54.597184 262.63222 C 52.046058 262.2779 50.965848 262.50058 49.934937 263.5934 C 47.616931 266.0506 48.662059 270.15036 51.816475 270.97383 C 52.410465 271.12889 52.369568 271.14426 50.711117 271.38259 C 49.981461 271.48744 49.005923 271.6319 48.543807 271.7035 C 46.350954 272.04348 43.094381 272.08626 42.265637 271.78618 C 42.047376 271.70715 41.66791 271.63412 41.422278 271.62392 C 41.071021 271.60925 40.905706 271.54733 40.647648 271.33453 L 40.319503 271.06426 L 40.676587 270.90665 C 42.468098 270.11624 43.832818 267.34931 43.255241 265.67906 C 42.543444 263.62066 40.790966 262.39212 38.318075 262.21829 z "
     transform="translate(0,-168.49998)" /><path
     id="path3"
     style="fill:#ff4253;fill-opacity:1"
     inkscape:label="Rojo"
     transform="translate(0,-168.49998)"
     d="m 23.60011,206.9953 c -1.293858,-0.0147 -2.296321,0.75927 -3.33313,1.4118 -1.05495,0.65396 -1.446302,1.40005 -1.619539,3.08819 -0.256938,2.5038 1.044528,4.41858 3.464388,5.09736 2.970313,0.83318 6.1867,-1.78698 6.1774,-5.03225 -0.0078,-2.72447 -2.292402,-4.63482 -4.689119,-4.5651 z m -16.1302817,0.002 c -0.2900316,0.02 -0.5818946,0.0617 -0.8738485,0.12661 -4.8935264,1.0887 -5.2807513,7.45156 -0.5488037,9.01909 2.5039852,0.82949 5.5063499,0.0443 6.3939249,-1.67173 0.100638,-0.19458 0.311034,-0.47217 0.467672,-0.61702 2.834521,-2.62123 -1.088471,-7.1566 -5.4389447,-6.85695 z m 31.2983477,24.54476 c -0.34204,6e-4 -0.693843,0.0306 -1.050582,0.093 -1.167803,0.20426 -1.550654,0.45304 -3.024104,1.96319 -1.55063,1.58925 -1.668124,4.92468 -0.211874,6.00945 1.752165,1.30521 2.075616,1.49084 2.81895,1.61644 3.207533,0.54198 6.135096,-1.97941 5.800679,-4.99556 0.07023,-2.80784 -1.386456,-4.5136 -4.333069,-4.68654 z m 14.51281,0.32763 c -2.185736,0.14262 -4.151185,1.61644 -4.382162,3.93413 -0.322478,3.23582 0.724968,4.79165 3.669544,5.45031 1.871502,0.41862 4.283796,-0.67589 5.326289,-2.41639 0.88817,-1.48285 0.463002,-4.62776 -0.768428,-5.68182 -1.142813,-0.97821 -2.533802,-1.3718 -3.845243,-1.28623 z M 8.038269,256.43466 c -2.9045284,0.0585 -5.9091472,2.79601 -4.9480183,5.68803 0.6782749,2.04092 1.431126,2.91866 2.824117,3.29282 0.3161842,0.0849 0.7541705,0.20645 0.9730672,0.26975 4.8271101,1.39637 7.8076181,-5.01055 3.8715981,-8.32249 -0.7953173,-0.66921 -1.7525878,-0.94761 -2.720764,-0.92811 z m 15.141711,0.10439 c -0.937939,-0.0277 -1.894475,0.17879 -2.658752,0.66146 -3.485464,2.2012 -2.469013,7.8223 1.565796,8.65994 3.868522,0.80313 7.242646,-3.73476 5.038969,-6.77685 -0.148537,-0.20505 -0.322026,-0.496 -0.385506,-0.64699 -0.485182,-1.15399 -1.997275,-1.85131 -3.560507,-1.89756 z m 14.98875,24.49876 c -1.872189,0.0224 -3.626129,1.05288 -4.528923,2.92024 -1.357086,2.80703 0.0022,5.53942 3.274219,6.58203 4.402092,1.40271 8.313199,-5.76312 4.594035,-8.41706 -1.049953,-0.74923 -2.216018,-1.09865 -3.339331,-1.08521 z m 14.847155,0.39326 c -0.503179,0.0383 -1.036893,0.1272 -1.597318,0.27027 -2.294741,0.58582 -3.846889,3.40368 -2.94659,5.34954 0.126941,0.27436 0.258992,0.63291 0.293522,0.79634 0.27117,1.2833 1.666507,2.58107 3.054594,2.84117 2.723889,0.5104 5.233469,-1.09455 5.879227,-3.75998 0.860209,-3.5506 -1.161181,-5.7657 -4.683435,-5.49734 z m 6.418081,11.96817 -0.121957,0.10129 c -0.06709,0.0557 -0.121956,0.1557 -0.121956,0.2222 0,0.0665 -0.100839,0.18679 -0.224276,0.26769 l -0.224792,0.14728 -0.337964,-0.2341 -0.337964,-0.23461 h -0.358634 -0.358635 l -0.205672,0.21859 -0.205155,0.21859 0.05323,0.1385 c 0.07124,0.18563 0.177098,0.17399 0.371037,-0.0403 l 0.161231,-0.17828 h 0.197404 c 0.10845,0 0.292772,0.074 0.409794,0.16484 0.117023,0.0908 0.273149,0.18801 0.346749,0.21601 v 5.2e-4 c 0.0736,0.028 0.220988,0.0539 0.327628,0.0579 l 0.193787,0.007 0.269751,-0.22686 c 0.148349,-0.12483 0.295385,-0.30736 0.326595,-0.40566 l 0.05684,-0.1788 -0.108521,-0.13074 z m 0.116272,1.34049 -0.176217,0.34571 -0.176216,0.3452 -0.174667,0.046 c -0.177046,0.0463 -0.327249,-0.0184 -0.765328,-0.32814 l -0.241845,-0.17053 H 57.76275 c -0.282609,0 -0.695876,0.23576 -0.775146,0.44235 l -0.05168,0.13435 0.09457,0.0946 0.09457,0.0951 0.241846,-0.19017 c 0.319133,-0.25107 0.452975,-0.23828 0.930692,0.0868 l 0.401526,0.27337 0.298173,-0.0475 c 0.589975,-0.094 1.213289,-1.12706 0.680062,-1.12706 z" /><g
     inkscape:groupmode="layer"
     id="layer2"
     inkscape:label="components" /></svg>
