<?xml version="1.0" encoding="UTF-8" standalone="no"?>
<!-- Created with Inkscape (http://www.inkscape.org/) -->

<svg
   width="20.32mm"
   height="128.5mm"
   viewBox="0 0 20.320001 128.50002"
   version="1.1"
   id="svg8"
   inkscape:version="1.4 (e7c3feb1, 2024-10-09)"
   sodipodi:docname="Ktick.svg"
   xml:space="preserve"
   xmlns:inkscape="http://www.inkscape.org/namespaces/inkscape"
   xmlns:sodipodi="http://sodipodi.sourceforge.net/DTD/sodipodi-0.dtd"
   xmlns="http://www.w3.org/2000/svg"
   xmlns:svg="http://www.w3.org/2000/svg"
   xmlns:rdf="http://www.w3.org/1999/02/22-rdf-syntax-ns#"
   xmlns:cc="http://creativecommons.org/ns#"
   xmlns:dc="http://purl.org/dc/elements/1.1/"><defs
     id="defs2"><linearGradient
       id="swatch30"
       inkscape:swatch="solid"><stop
         style="stop-color:#151515;stop-opacity:1;"
         offset="0"
         id="stop31" /></linearGradient></defs><sodipodi:namedview
     id="base"
     pagecolor="#ffffff"
     bordercolor="#666666"
     borderopacity="1.0"
     inkscape:pageopacity="0.0"
     inkscape:pageshadow="2"
     inkscape:zoom="1.049908"
     inkscape:cx="45.242058"
     inkscape:cy="69.5299"
     inkscape:document-units="mm"
     inkscape:current-layer="svg8"
     showgrid="true"
     units="mm"
     inkscape:snap-bbox="true"
     inkscape:snap-page="true"
     inkscape:bbox-nodes="false"
     inkscape:snap-bbox-edge-midpoints="false"
     inkscape:window-width="1440"
     inkscape:window-height="847"
     inkscape:window-x="0"
     inkscape:window-y="25"
     inkscape:window-maximized="1"
     inkscape:snap-bbox-midpoints="true"
     inkscape:snap-nodes="false"
     inkscape:showpageshadow="2"
     inkscape:pagecheckerboard="0"
     inkscape:deskcolor="#d1d1d1"><inkscape:grid
       id="grid1"
       units="mm"
       originx="0"
       originy="0"
       spacingx="2.5400005"
       spacingy="2.5400004"
       empcolor="#0099e5"
       empopacity="0.30196078"
       color="#e50000"
       opacity="0.14901961"
       empspacing="2"
       enabled="true"
       visible="true" /></sodipodi:namedview><metadata
     id="metadata5"><rdf:RDF><cc:Work
         rdf:about=""><dc:format>image/svg+xml</dc:format><dc:type
           rdf:resource="http://purl.org/dc/dcmitype/StillImage" /></cc:Work></rdf:RDF></metadata><g
     inkscape:label="Layer 1"
     inkscape:groupmode="layer"
     id="layer1"
     transform="translate(0,-168.49998)"><rect
       style="display:inline;fill:#e6e6e6;stroke:none;stroke-width:0.443844;stroke-linecap:round;stroke-linejoin:round;stroke-opacity:1;fill-opacity:1"
       id="rect10"
       width="20.32"
       height="128.5"
       x="0"
       y="168.49998" /></g><path
     d="m 14.066311,9.1347223 -2.498521,-0.0587 c -2.0809825,0.017205 -4.0727809,-0.0359 -4.7391954,-0.007 -0.6664145,0.0284 -1.0399848,0.0189 -2.088022,-0.0217 l -1.9055901,-0.0741 -0.05132,0.12085 c -0.071101,0.16727 -0.067129,0.22142 0.025543,0.37611 l 0.4649505,0.1845445 1.4593144,0.018095 c 1.014169,0.0378 2.4019161,0.0455 3.0838045,0.0176 0.6818963,-0.028 3.2181601,0.020605 4.5749051,0.047605 l 1.598662,-3.045e-4 0.09614,-0.1452497 0.09612,-0.14473 -0.05817,-0.15645 z"
     style="fill:#00a4e9;fill-opacity:1;stroke-width:0.794326"
     id="path1-2"
     inkscape:label="Azul"
     sodipodi:nodetypes="cccccccccccccccc" /><path
     id="path3"
     style="fill:#ff4253;fill-opacity:1"
     inkscape:label="Rojo"
     d="m 12.055595,33.271354 c -4.435381,0.19398 -5.9094993,7.299956 -1.931148,9.308476 0.44545,0.2249 0.793112,0.345103 2.201932,0.759643 1.2254,0.36057 3.427495,-0.84976 4.14135,-2.27583 0.621505,-1.24157 1.036313,-3.254508 0.859379,-4.170288 -0.403423,-2.08805 -2.793583,-3.730381 -5.271513,-3.622001 z m -0.45992,25.588619 -1.126547,0.560689 c -1.7507505,0.87165 -1.9843907,1.170434 -2.4928707,3.192054 -0.80976,3.2194 0.3086787,5.604078 2.8907797,6.164998 2.69231,0.58486 5.471771,-0.84464 6.137093,-3.15588 1.11016,-3.85656 -0.747277,-6.752794 -4.335653,-6.759794 z m -0.188619,25.760702 c -1.6595351,0.186926 -2.9497404,1.395566 -3.7289717,3.570841 -0.97324,2.71685 0.9642378,6.025196 3.7677287,6.433716 5.512503,0.80327 8.209871,-6.698267 3.31711,-9.225277 -1.231035,-0.635805 -2.360146,-0.891436 -3.355867,-0.77928 z m 0.769462,25.405685 c -0.398312,-0.01 -0.799544,0.0408 -1.194243,0.16071 -4.8135705,1.46208 -4.2186435,8.49111 0.813387,9.61079 0.29186,0.0649 0.555178,0.12105 0.584978,0.12505 0.41678,0.054 2.076613,-0.62312 2.837553,-1.15755 0.60806,-0.42707 1.574509,-1.93671 1.752347,-2.7373 0.645287,-2.90493 -2.005839,-5.93262 -4.794022,-6.0017 z m 6.498953,14.92382 -0.121957,0.10129 c -0.06709,0.0557 -0.121956,0.1557 -0.121956,0.2222 0,0.0665 -0.100839,0.18679 -0.224276,0.26769 l -0.224792,0.14728 -0.337964,-0.2341 -0.337964,-0.23461 h -0.358634 -0.358635 l -0.205672,0.21859 -0.205155,0.21859 0.05323,0.1385 c 0.07124,0.18563 0.177098,0.17399 0.371037,-0.0403 l 0.161231,-0.17828 h 0.197404 c 0.10845,0 0.292772,0.074 0.409794,0.16484 0.117023,0.0908 0.273149,0.18801 0.346749,0.21601 v 5.2e-4 c 0.0736,0.028 0.220988,0.0539 0.327628,0.0579 l 0.193787,0.007 0.269751,-0.22686 c 0.148349,-0.12483 0.295385,-0.30736 0.326595,-0.40566 l 0.05684,-0.1788 -0.108521,-0.13074 z m 0.116272,1.34049 -0.176217,0.34571 -0.176216,0.3452 -0.174667,0.046 c -0.177046,0.0463 -0.327249,-0.0184 -0.765328,-0.32814 l -0.241845,-0.17053 h -0.253215 c -0.282609,0 -0.695876,0.23576 -0.775146,0.44235 l -0.05168,0.13435 0.09457,0.0946 0.09457,0.0951 0.241846,-0.19017 c 0.319133,-0.25107 0.452975,-0.23828 0.930692,0.0868 l 0.401526,0.27337 0.298173,-0.0475 c 0.589975,-0.094 1.213289,-1.12706 0.680062,-1.12706 z" /></svg>
