<?xml version="1.0" encoding="UTF-8" standalone="no"?>
<!-- Created with Inkscape (http://www.inkscape.org/) -->

<svg
   width="30.48mm"
   height="128.5mm"
   viewBox="0 0 30.480002 128.50002"
   version="1.1"
   id="svg8"
   inkscape:version="1.4 (e7c3feb1, 2024-10-09)"
   sodipodi:docname="Logistic.svg"
   xml:space="preserve"
   xmlns:inkscape="http://www.inkscape.org/namespaces/inkscape"
   xmlns:sodipodi="http://sodipodi.sourceforge.net/DTD/sodipodi-0.dtd"
   xmlns="http://www.w3.org/2000/svg"
   xmlns:svg="http://www.w3.org/2000/svg"
   xmlns:rdf="http://www.w3.org/1999/02/22-rdf-syntax-ns#"
   xmlns:cc="http://creativecommons.org/ns#"
   xmlns:dc="http://purl.org/dc/elements/1.1/"><defs
     id="defs2"><linearGradient
       id="swatch30"
       inkscape:swatch="solid"><stop
         style="stop-color:#151515;stop-opacity:1;"
         offset="0"
         id="stop31" /></linearGradient></defs><sodipodi:namedview
     id="base"
     pagecolor="#ffffff"
     bordercolor="#666666"
     borderopacity="1.0"
     inkscape:pageopacity="0.0"
     inkscape:pageshadow="2"
     inkscape:zoom="5.5815669"
     inkscape:cx="45.059032"
     inkscape:cy="43.536162"
     inkscape:document-units="mm"
     inkscape:current-layer="layer1"
     showgrid="true"
     units="mm"
     inkscape:snap-bbox="true"
     inkscape:snap-page="true"
     inkscape:bbox-nodes="false"
     inkscape:snap-bbox-edge-midpoints="false"
     inkscape:window-width="1440"
     inkscape:window-height="847"
     inkscape:window-x="0"
     inkscape:window-y="25"
     inkscape:window-maximized="0"
     inkscape:snap-bbox-midpoints="true"
     inkscape:snap-nodes="false"
     inkscape:showpageshadow="2"
     inkscape:pagecheckerboard="0"
     inkscape:deskcolor="#d1d1d1"><inkscape:grid
       id="grid1"
       units="mm"
       originx="0"
       originy="0"
       spacingx="2.5400005"
       spacingy="2.5400004"
       empcolor="#0099e5"
       empopacity="0.30196078"
       color="#e50000"
       opacity="0.14901961"
       empspacing="2"
       enabled="true"
       visible="true" /></sodipodi:namedview><metadata
     id="metadata5"><rdf:RDF><cc:Work
         rdf:about=""><dc:format>image/svg+xml</dc:format><dc:type
           rdf:resource="http://purl.org/dc/dcmitype/StillImage" /></cc:Work></rdf:RDF></metadata><g
     inkscape:label="Layer 1"
     inkscape:groupmode="layer"
     id="layer1"
     transform="translate(0,-168.49998)"><rect
       style="display:inline;fill:#e6e6e6;fill-opacity:1;stroke:none;stroke-width:0.543913;stroke-linecap:round;stroke-linejoin:round;stroke-opacity:1"
       id="rect10"
       width="30.515545"
       height="128.5"
       x="0"
       y="168.49998" /></g><path
     id="path1-2"
     style="fill:#00a4e9;fill-opacity:1;stroke-width:1.00155"
     d="m 2.7889771,9.5100138 -0.081649,0.1204061 c -0.113012,0.16727 -0.1070858,0.2215148 0.040308,0.3762041 l 0.1281576,0.134876 2.9310872,0.0677 c 1.6123353,0.0378 3.8189774,0.04547 4.9030601,0.01757 1.084082,-0.028 2.356955,0.06963 4.513936,0.09664 l 5.300968,-0.04909 0.152446,-0.145211 0.152962,-0.1446935 -0.0925,-0.1565796 -0.09302,-0.1565796 -3.972368,-0.058911 c -2.184595,-0.0324 -4.838873,-0.035618 -5.898348,-0.00672 -1.0594841,0.0284 -1.3191637,0.067989 -2.9853469,0.027388 z M 14.958213,52.155687 c -0.457639,-0.0074 -0.939164,0.04232 -1.43938,0.154258 -4.4246541,0.990195 -4.4513852,8.271421 -0.03476,9.433646 2.537672,0.667785 5.353298,-0.765206 5.862352,-2.983591 0.85261,-3.715554 -1.184731,-6.552977 -4.388209,-6.604313 z m -4.864318,23.714915 c -0.5218925,-0.01068 -1.0788833,0.0647 -1.6626121,0.240378 -4.2964176,1.293031 -4.0321906,8.558094 0.3394807,9.334664 1.4742424,0.261887 3.5607224,-0.465366 4.2888424,-1.494979 2.622577,-3.708525 0.687537,-8.005325 -2.965711,-8.080063 z M 9.8215642,90.275773 c -1.6930828,0.05502 -3.3795531,0.964545 -4.2032707,2.700796 -1.4001773,2.951334 -0.1497543,5.588263 3.1190767,6.576761 2.8961358,0.8758 5.5884488,-1.427697 5.6922888,-4.870259 l 0.03606,-1.189169 -0.400517,-0.791343 C 13.214634,91.020723 11.514647,90.220745 9.8215642,90.275773 Z M 7.7301975,105.19989 c -5.5280841,0.19138 -6.7164691,8.48603 -0.6457306,9.5642 1.9140886,0.33995 4.0165401,-0.96961 4.6608921,-2.90361 0.08114,-0.24355 0.258522,-0.70368 0.394613,-1.02295 1.013089,-2.37668 -0.604255,-5.14806 -3.2471331,-5.56317 -0.4062537,-0.0639 -0.7941027,-0.0872 -1.1626414,-0.0745 z"
     inkscape:label="Azul" /><path
     id="path3"
     style="fill:#ff4253;fill-opacity:1"
     inkscape:label="Rojo"
     d="m 14.813566,113.73621 c -1.304043,-0.0162 -2.601679,0.36564 -3.382222,1.15238 -3.1906078,3.21595 -2.6389327,7.38816 1.136364,8.59586 1.235083,0.3951 3.591323,0.15578 4.876705,-0.49557 2.379512,-1.20579 2.847784,-5.95789 0.790133,-8.01554 -0.806529,-0.80652 -2.116937,-1.22087 -3.42098,-1.23713 z m 14.1153,11.1953 -0.121957,0.10129 c -0.06709,0.0557 -0.121956,0.1557 -0.121956,0.2222 0,0.0665 -0.100839,0.18679 -0.224276,0.26769 l -0.224792,0.14728 -0.337964,-0.2341 -0.337964,-0.23461 h -0.358634 -0.358635 l -0.205672,0.21859 -0.205155,0.21859 0.05323,0.1385 c 0.07124,0.18563 0.177098,0.17399 0.371037,-0.0403 l 0.161231,-0.17828 h 0.197404 c 0.10845,0 0.292772,0.074 0.409794,0.16484 0.117023,0.0908 0.273149,0.18801 0.346749,0.21601 v 5.2e-4 c 0.0736,0.028 0.220988,0.0539 0.327628,0.0579 l 0.193787,0.007 0.269751,-0.22686 c 0.148349,-0.12483 0.295385,-0.30736 0.326595,-0.40566 l 0.05684,-0.1788 -0.108521,-0.13074 z m 0.116272,1.34049 -0.176217,0.34571 -0.176216,0.3452 -0.174667,0.046 c -0.177046,0.0463 -0.327249,-0.0184 -0.765328,-0.32814 l -0.241845,-0.17053 H 27.25765 c -0.282609,0 -0.695876,0.23576 -0.775146,0.44235 l -0.05168,0.13435 0.09457,0.0946 0.09457,0.0951 0.241846,-0.19017 c 0.319133,-0.25107 0.452975,-0.23828 0.930692,0.0868 l 0.401526,0.27337 0.298173,-0.0475 c 0.589975,-0.094 1.213289,-1.12706 0.680062,-1.12706 z" /><path
     id="path2"
     style="display:inline;fill:#000000"
     inkscape:label="Negro"
     d="M 8.1483398 14.524695 C 8.041212 14.539387 7.9458785 14.580175 7.8842733 14.654403 C 7.6967233 14.880393 7.8281514 15.089001 8.1581584 15.089001 C 8.4067214 15.089001 8.4656331 15.122765 8.4656331 15.265735 C 8.4656331 15.594025 8.5902922 15.680302 8.9829142 15.622302 C 9.2684452 15.580102 9.3157864 15.589477 9.1953044 15.664677 C 9.0410144 15.760937 8.9872432 16.023509 9.0991862 16.135449 L 9.0991862 16.135966 C 9.1722192 16.208766 9.2511119 16.209617 9.4309489 16.140617 C 9.5824429 16.082487 9.6278433 15.663643 9.4826253 15.663643 C 9.4339853 15.663643 9.3942586 15.616107 9.3942586 15.557707 C 9.3942586 15.475207 9.4176453 15.475207 9.5001953 15.557707 C 9.6472773 15.704827 9.8373399 15.690239 10.028328 15.517399 C 10.173557 15.385919 10.190076 15.385625 10.190076 15.511715 C 10.190076 15.821095 10.757258 15.789458 10.857218 15.474508 C 10.95593 15.163508 10.485472 14.870208 10.319267 15.139128 C 10.281166 15.200728 10.202655 15.180533 10.092407 15.080733 C 9.9631616 14.963733 9.8778996 14.948621 9.7255046 15.015621 C 9.4664046 15.129661 8.7544202 15.05947 8.8030802 14.92467 C 8.8934792 14.674283 8.4697233 14.480619 8.1483398 14.524695 z M 14.494722 14.5526 C 14.151863 14.555394 13.816211 14.66155 13.816211 14.86886 C 13.816211 15.05173 13.960624 15.107932 14.568103 15.160832 C 14.762678 15.177732 14.941692 15.197757 14.966012 15.204757 C 15.09606 15.244497 15.243149 15.041331 15.217159 14.857491 C 15.187881 14.650406 14.837582 14.549806 14.494722 14.5526 z M 24.46414 14.615645 C 24.415953 14.615521 24.36463 14.621737 24.310661 14.635282 C 24.044382 14.702112 24.001359 14.905917 24.226945 15.032157 C 24.342815 15.096957 24.300008 15.114088 24.04401 15.107088 C 23.855116 15.101738 23.67875 15.147625 23.63835 15.213025 C 23.59157 15.288725 23.547563 15.296779 23.510193 15.236279 C 23.326011 14.938269 22.484141 15.236642 22.619291 15.552022 C 22.656031 15.637762 22.676967 15.817194 22.666317 15.950964 C 22.6509 16.144684 22.684894 16.19436 22.831681 16.19436 C 22.991241 16.19436 23.001473 16.216939 22.909713 16.363859 C 22.826273 16.497479 22.828668 16.563291 22.920048 16.673401 C 23.020845 16.794851 23.005725 16.813444 22.804293 16.813444 C 22.634015 16.813444 22.572266 16.767885 22.572266 16.642395 C 22.572266 16.394305 22.218467 16.304121 22.074105 16.515271 C 22.01183 16.606361 21.894429 16.748731 21.813139 16.831531 C 21.731849 16.914351 21.68813 17.040417 21.71547 17.111617 C 21.742813 17.182857 21.707846 17.263101 21.637956 17.289901 C 21.462918 17.357071 21.478131 17.58186 21.665344 17.69091 C 21.91484 17.83622 22.129915 17.715994 22.129915 17.431494 C 22.129915 17.200154 22.377185 16.924287 22.465295 17.057357 C 22.608484 17.273657 23.236156 17.239636 23.228556 17.016016 C 23.224903 16.908506 23.271873 16.801187 23.332943 16.777787 C 23.515347 16.707787 23.434041 17.193187 23.235274 17.360697 C 23.066029 17.503327 23.065442 17.516579 23.21512 17.668689 C 23.402069 17.858689 23.677625 17.738541 23.677625 17.467151 C 23.677625 17.375171 23.727402 17.267823 23.788212 17.228923 C 23.922556 17.142973 23.936118 16.813444 23.805265 16.813444 C 23.753755 16.813444 23.736475 16.772927 23.767025 16.723527 C 23.797579 16.674327 23.854896 16.653969 23.894666 16.678569 C 23.995557 16.740919 24.191442 16.486642 24.125142 16.379362 C 24.09527 16.331032 24.155668 16.246343 24.259501 16.190743 C 24.40778 16.111383 24.437337 16.035016 24.397477 15.835726 C 24.369557 15.696166 24.387528 15.556884 24.437268 15.526184 C 24.487018 15.495434 24.514713 15.404212 24.498763 15.323612 C 24.482815 15.243022 24.550245 15.136001 24.648625 15.085901 C 24.973507 14.920517 24.801447 14.616514 24.46414 14.615645 z M 15.736507 14.638383 C 15.49644 14.655626 15.398374 14.772487 15.497245 14.957227 C 15.628992 15.203377 16.326662 15.158426 16.363342 14.901416 C 16.385797 14.744066 16.331624 14.705453 16.021761 14.655953 C 15.912182 14.63843 15.816529 14.632635 15.736507 14.638383 z M 13.31805 15.054895 C 13.122955 15.093861 13.018205 15.361214 13.214697 15.557707 C 13.355193 15.698197 13.422163 15.691816 13.592969 15.521016 C 13.754533 15.359446 13.736684 15.230311 13.535608 15.103471 C 13.4583 15.054706 13.383082 15.041906 13.31805 15.054895 z M 21.85448 15.132926 C 21.66267 15.132926 21.553308 15.327765 21.631238 15.530835 C 21.700432 15.711165 21.929022 15.698264 22.026562 15.508614 C 22.135872 15.296084 22.061026 15.132926 21.85448 15.132926 z M 12.390458 15.161348 C 12.259965 15.162782 12.135693 15.253537 12.135693 15.433167 C 12.135693 15.584797 12.084351 15.625819 11.896431 15.622819 C 11.743656 15.620599 11.624286 15.683962 11.565186 15.798002 C 11.514306 15.896192 11.380535 16.067784 11.268046 16.179374 C 11.043718 16.401904 11.047632 16.529934 11.284066 16.674434 C 11.451624 16.776834 11.83253 16.435915 11.7321 16.273425 C 11.70517 16.229925 11.745144 16.19436 11.820984 16.19436 C 11.898508 16.19436 11.95896 16.269426 11.95896 16.365926 C 11.95896 16.460346 11.998126 16.561835 12.045776 16.591235 C 12.100916 16.625315 12.095844 16.703183 12.031824 16.805693 C 11.976494 16.894283 11.955878 17.0317 11.986348 17.1111 C 12.044141 17.2617 12.200191 17.293351 12.438 17.202051 C 12.58813 17.144441 12.635384 16.725077 12.491744 16.725077 C 12.443194 16.725077 12.428434 16.609611 12.458154 16.461011 C 12.497272 16.265441 12.474 16.182967 12.367721 16.142167 C 12.193757 16.075417 12.173721 15.663643 12.344466 15.663643 C 12.425196 15.663643 12.451354 15.736549 12.423014 15.884819 C 12.399774 16.006419 12.414971 16.109228 12.457121 16.113228 C 12.499274 16.117228 12.633168 16.133719 12.754777 16.149919 C 13.318609 16.225069 13.530829 15.758543 12.975952 15.663643 C 12.78959 15.631783 12.702624 15.561602 12.683464 15.427482 C 12.65784 15.248117 12.520952 15.159915 12.390458 15.161348 z M 17.793229 15.162899 C 17.72907 15.148746 17.656536 15.147916 17.582389 15.166516 C 17.29163 15.239486 17.273297 15.547626 17.552934 15.660026 L 17.751888 15.740125 L 17.55035 15.746326 C 17.313952 15.7529 17.203101 15.967092 17.346228 16.1401 C 17.452475 16.26812 17.853194 16.282555 18.039209 16.164905 C 18.193542 16.067285 18.177542 15.756532 18.014921 15.694132 C 17.908491 15.653292 17.902465 15.615332 17.985465 15.515332 C 18.105441 15.37077 17.985707 15.205358 17.793229 15.162899 z M 16.519405 15.236279 C 16.105125 15.236279 15.977145 15.317204 16.057935 15.527734 C 16.141308 15.744984 16.861656 15.659129 16.894576 15.427999 C 16.919144 15.255569 16.881677 15.236279 16.519405 15.236279 z M 18.992122 15.23938 C 18.893564 15.211432 18.772793 15.243137 18.684131 15.349967 C 18.591571 15.461497 18.591571 15.512323 18.684131 15.623853 C 18.861455 15.837523 19.167306 15.75086 19.167306 15.48691 C 19.167306 15.35494 19.090681 15.267327 18.992122 15.23938 z M 23.56342 15.446602 C 23.59725 15.440429 23.621657 15.468871 23.654887 15.528251 C 23.707437 15.622051 23.805516 15.6486 23.969596 15.613 L 24.208341 15.561324 L 23.987166 15.741158 C 23.800879 15.892768 23.782431 15.947804 23.869861 16.089974 C 23.965282 16.245114 23.945541 16.258439 23.621297 16.258439 C 23.37215 16.258439 23.295928 16.230888 23.362398 16.164388 C 23.488142 16.038618 23.482875 15.75201 23.354647 15.75201 C 23.297349 15.75201 23.323618 15.672749 23.415108 15.571659 C 23.486051 15.493274 23.529589 15.452776 23.56342 15.446602 z M 22.151619 15.679663 C 21.934308 15.648803 21.810862 15.838273 21.898922 16.067753 C 21.98854 16.301303 22.35109 16.19033 22.35109 15.92926 C 22.35109 15.76714 22.297792 15.700363 22.151619 15.679663 z M 15.263151 15.742708 C 15.143915 15.753758 15.03392 16.001057 15.10037 16.108577 C 15.169274 16.220057 15.832974 16.189477 15.931844 16.070337 C 16.106603 15.859767 15.771473 15.695608 15.263151 15.742708 z M 10.10946 16.105477 C 9.8711428 16.105477 9.6312833 16.451799 9.7611613 16.608289 C 9.9061533 16.783009 10.170873 16.748859 10.28206 16.541109 C 10.409204 16.303539 10.330908 16.105477 10.10946 16.105477 z M 18.995223 16.168522 C 18.684837 16.144912 18.503967 16.379257 18.674312 16.584517 C 18.830915 16.773177 19.184878 16.762377 19.290295 16.565397 C 19.40669 16.347917 19.29014 16.190922 18.995223 16.168522 z M 14.717448 16.203145 C 14.671396 16.211261 14.626883 16.232215 14.590841 16.268258 C 14.540911 16.318198 14.525141 16.424302 14.555701 16.503902 C 14.63609 16.713382 15.010453 16.641539 15.010453 16.416569 C 15.010453 16.270229 14.855603 16.178799 14.717448 16.203145 z M 17.069759 16.238285 C 16.947616 16.237981 16.799293 16.24975 16.624308 16.273425 C 16.554798 16.282825 16.531153 16.579729 16.594853 16.643429 C 16.707974 16.756499 17.43336 16.699425 17.48162 16.573665 C 17.567855 16.348943 17.436189 16.239199 17.069759 16.238285 z M 21.234363 16.252755 C 20.813798 16.232685 20.785458 16.646513 21.20129 16.735413 C 21.347222 16.766613 21.491671 16.796592 21.522201 16.802592 C 21.552728 16.808352 21.628602 16.751385 21.691182 16.675985 C 21.851741 16.482525 21.623681 16.271355 21.234363 16.252755 z M 10.609688 16.65273 C 10.321206 16.61955 10.217875 16.799674 10.366292 17.076994 C 10.524191 17.372034 10.853601 17.283782 10.853601 16.946252 C 10.853601 16.722392 10.815298 16.67643 10.609688 16.65273 z M 12.921175 16.663582 C 12.792353 16.667453 12.66641 16.774586 12.66641 16.914213 C 12.66641 17.007823 12.73631 17.105988 12.82144 17.132288 C 12.906566 17.158568 13.035791 17.214528 13.108761 17.256828 C 13.427429 17.441458 13.774528 17.252066 13.711308 16.928166 C 13.68993 16.818616 13.59703 16.767318 13.412618 16.763318 C 13.265353 16.760218 13.100422 16.730155 13.046232 16.696655 C 13.007121 16.672483 12.964116 16.662292 12.921175 16.663582 z M 14.913818 16.742647 C 14.686211 16.710127 14.501122 16.916138 14.577922 17.116268 C 14.61562 17.214538 14.713532 17.256024 14.866793 17.238224 C 15.168406 17.203244 15.208084 16.784647 14.913818 16.742647 z M 18.336865 16.757633 C 18.298692 16.752204 18.255309 16.757845 18.208708 16.77572 C 18.059778 16.83287 18.009068 17.085097 18.123442 17.199467 C 18.232577 17.308597 18.456324 17.214618 18.488794 17.045988 C 18.519437 16.88686 18.451385 16.773921 18.336865 16.757633 z M 20.573938 16.768486 C 20.472882 16.762482 20.347258 16.76673 20.1967 16.781405 C 19.873639 16.812905 19.490302 16.843067 19.345072 16.848067 C 19.162737 16.854587 19.071363 16.90834 19.049483 17.0217 C 19.006972 17.24198 19.162291 17.38272 19.360059 17.30282 C 19.837497 17.10979 20.414801 17.193921 20.377051 17.451131 C 20.345071 17.669031 20.36863 17.697628 20.578589 17.697628 C 20.785283 17.697628 20.813159 17.666159 20.790979 17.454749 C 20.776939 17.320949 20.793853 17.165433 20.828703 17.109033 C 20.958805 16.898508 20.877106 16.786495 20.573938 16.768486 z M 11.30422 17.211353 C 10.987089 17.211353 10.812625 17.444651 10.979692 17.645951 C 11.210816 17.924441 11.656817 17.722906 11.588957 17.370516 C 11.56794 17.261386 11.478854 17.211353 11.30422 17.211353 z M 15.340666 17.284733 C 15.27683 17.274501 15.217074 17.276093 15.171684 17.293518 C 15.050464 17.340038 15.008947 17.71111 15.113289 17.81545 C 15.249876 17.95204 15.761829 17.754696 15.761829 17.565336 C 15.761829 17.450384 15.532172 17.31543 15.340666 17.284733 z M 18.151347 17.344161 C 17.942685 17.344161 17.779913 17.551911 17.848523 17.730701 C 17.915866 17.906171 18.180224 17.918622 18.317745 17.752922 C 18.450584 17.592862 18.349201 17.344161 18.151347 17.344161 z M 14.759306 17.696594 C 14.684773 17.703636 14.607991 17.736804 14.541231 17.803564 C 14.460849 17.884064 14.435295 17.884532 14.435295 17.805632 C 14.435295 17.664332 13.657758 17.701343 13.535608 17.848523 C 13.356074 18.064853 13.522039 18.213359 13.942818 18.213359 C 14.164431 18.213359 14.368231 18.17671 14.396021 18.13171 C 14.423809 18.08671 14.506649 18.110086 14.579989 18.183386 C 14.764822 18.368216 14.942001 18.350074 15.057479 18.134294 C 15.188427 17.889471 14.982903 17.675468 14.759306 17.696594 z M 11.83442 17.697628 C 11.564795 17.697628 11.483314 17.817248 11.555884 18.106388 C 11.596791 18.269358 11.660964 18.321192 11.798246 18.300692 C 12.21026 18.239272 12.242767 17.697628 11.83442 17.697628 z M 12.901021 17.697628 C 12.490767 17.697628 12.254896 17.861928 12.341366 18.087268 C 12.368057 18.156828 12.332707 18.235651 12.262817 18.262451 C 12.10672 18.322351 12.093997 18.727634 12.246281 18.789034 C 12.508581 18.894874 12.701703 18.748147 12.715503 18.432467 C 12.724516 18.226367 12.766335 18.183286 12.961483 18.180286 C 13.247518 18.175296 13.416255 18.023351 13.344405 17.836121 C 13.30724 17.739311 13.17348 17.697628 12.901021 17.697628 z M 16.726628 17.785994 C 16.533111 17.785994 16.423463 17.980719 16.501318 18.18442 C 16.57558 18.376799 16.890179 18.346473 16.955554 18.140495 C 17.027718 17.913125 16.945546 17.785994 16.726628 17.785994 z M 22.75365 17.790645 C 22.610081 17.781789 22.480717 17.808118 22.439457 17.874878 C 22.409283 17.923678 22.294253 17.941235 22.184176 17.913635 C 21.966344 17.858955 21.72066 18.067567 21.81779 18.224727 C 21.84917 18.275527 21.817907 18.316711 21.748027 18.316711 C 21.472303 18.316711 21.367904 18.589545 21.578528 18.760095 C 21.736168 18.887795 21.74839 18.927551 21.64209 18.968351 C 21.477408 19.031551 21.472417 19.236174 21.632271 19.368844 C 21.908495 19.598084 22.226975 19.222504 21.972302 18.967834 C 21.863572 18.859114 21.852028 18.807266 21.931478 18.780766 C 21.991853 18.760646 22.041549 18.670661 22.041549 18.580261 C 22.041549 18.366151 22.121971 18.32274 22.417753 18.37924 C 22.671736 18.42779 22.768611 18.770578 22.563997 18.897038 C 22.510777 18.929928 22.483733 19.043416 22.504053 19.149736 C 22.55251 19.403256 22.389589 19.546384 22.112345 19.493384 C 21.884495 19.449834 21.695418 19.671388 21.868949 19.778638 C 21.915649 19.807498 21.930069 19.925801 21.900989 20.041671 C 21.871919 20.157531 21.87387 20.294645 21.90564 20.346045 C 21.989712 20.482055 22.179386 20.460356 22.31285 20.299536 C 22.40423 20.189426 22.406108 20.123614 22.322668 19.989994 C 22.203701 19.799544 22.299764 19.761673 22.472013 19.931083 C 22.61223 20.068983 22.945788 19.709699 22.867338 19.505269 C 22.840008 19.434059 22.862544 19.321872 22.917464 19.255672 C 22.972384 19.189492 22.992276 19.070706 22.961906 18.991606 C 22.931416 18.912126 22.950717 18.847428 23.004797 18.847428 C 23.058637 18.847428 23.102983 18.747863 23.102983 18.626253 C 23.102983 18.504643 23.058311 18.405595 23.004281 18.405595 C 22.950248 18.405595 23.000031 18.325645 23.114868 18.228345 C 23.319772 18.054815 23.320551 18.049043 23.152075 17.918803 C 23.05466 17.843468 22.897219 17.799502 22.75365 17.790645 z M 21.267436 17.817 C 21.2146 17.81531 21.158588 17.834897 21.109306 17.88418 C 21.032426 17.96107 20.998548 18.0845 21.030758 18.1684 C 21.102015 18.35413 21.277174 18.359189 21.426082 18.179769 C 21.559764 18.018706 21.425944 17.82207 21.267436 17.817 z M 15.697233 18.239197 C 15.457996 18.231383 15.208667 18.282393 15.146879 18.397843 C 15.099399 18.486563 15.083136 18.5816 15.110706 18.6092 C 15.138276 18.63678 15.098982 18.74723 15.023372 18.85518 C 14.921915 19.000026 14.909992 19.096209 14.976347 19.220532 C 15.12563 19.498805 15.446781 19.389743 15.479675 19.049483 C 15.504652 18.791093 15.529169 18.770155 15.749943 18.814355 C 16.026229 18.869605 16.236789 18.685443 16.188159 18.431433 C 16.165526 18.313238 15.93647 18.247011 15.697233 18.239197 z M 12.792501 18.78645 C 12.580746 18.785553 12.403034 19.034655 12.582178 19.250505 C 12.719697 19.416195 12.924326 19.385811 13.053467 19.180741 C 13.127648 19.062951 13.115977 18.994165 13.003341 18.881535 C 12.937103 18.815297 12.863086 18.786749 12.792501 18.78645 z M 14.591357 19.225183 C 14.426329 19.20591 14.258561 19.324869 14.258561 19.507336 C 14.258561 19.652836 14.193894 19.729002 14.037386 19.768302 C 13.788393 19.830792 13.741272 20.086624 13.941785 20.287134 C 14.0108 20.356154 14.080187 20.527833 14.096297 20.669023 C 14.119158 20.869413 14.169277 20.924137 14.323157 20.919137 C 14.476297 20.913837 14.498359 20.938391 14.423409 21.028691 C 14.300671 21.176581 14.38769 21.41213 14.565002 21.41213 C 14.647932 21.41213 14.700911 21.492475 14.700911 21.618835 C 14.700911 21.732335 14.727393 21.851536 14.759823 21.883936 C 14.919726 22.043836 15.231112 21.843742 15.231112 21.581112 C 15.231112 21.426162 15.004573 21.289805 14.877645 21.368205 C 14.837955 21.392755 14.824503 21.340016 14.847673 21.251416 C 14.870837 21.162826 14.827951 21.038981 14.752071 20.975981 C 14.666041 20.904541 14.632761 20.786114 14.664221 20.660754 C 14.693988 20.542154 14.662847 20.411094 14.588257 20.341394 C 14.437587 20.200654 14.490267 19.942776 14.714864 19.718176 C 14.911364 19.521686 14.918107 19.433766 14.748971 19.293396 C 14.700928 19.253523 14.646367 19.231607 14.591357 19.225183 z M 13.594002 19.325952 C 13.227559 19.233973 12.970262 19.557448 13.214697 19.802409 C 13.344634 19.932369 13.424559 19.935465 13.645162 19.817395 C 13.893756 19.684355 13.863489 19.393552 13.594002 19.325952 z M 22.052401 20.527946 C 21.860474 20.527946 21.648432 20.746957 21.723222 20.867977 C 21.751195 20.913237 21.715037 20.99908 21.642607 21.05918 C 21.570176 21.11929 21.510832 21.224024 21.510832 21.291724 C 21.510832 21.359394 21.47577 21.483693 21.4328 21.568193 C 21.196165 22.033363 21.138537 22.209253 21.184237 22.328353 C 21.212132 22.401043 21.177826 22.508381 21.107756 22.566581 C 21.037678 22.624741 20.980115 22.745699 20.980115 22.835299 C 20.980115 22.924919 20.900671 23.040547 20.803381 23.092647 C 20.706094 23.144717 20.626131 23.236136 20.626131 23.295736 C 20.626131 23.355286 20.546688 23.453527 20.449398 23.514327 C 20.352112 23.575087 20.272664 23.704231 20.272664 23.801131 C 20.272664 24.035881 20.712082 24.051261 20.772892 23.818701 C 20.795654 23.731661 20.901048 23.622522 21.007503 23.575822 C 21.113956 23.529092 21.20129 23.411122 21.20129 23.313822 C 21.20129 23.216532 21.280733 23.069844 21.378023 22.987744 C 21.516573 22.870854 21.534606 22.804827 21.460706 22.683887 C 21.388096 22.565057 21.402666 22.493364 21.524784 22.371244 C 21.612056 22.283974 21.662415 22.156891 21.636405 22.089091 C 21.610391 22.021301 21.651079 21.941974 21.726839 21.912874 C 21.802596 21.883794 21.864815 21.796571 21.864815 21.718571 C 21.864815 21.640601 21.927602 21.513634 22.004342 21.436934 C 22.081092 21.360194 22.124507 21.224111 22.100977 21.134111 C 22.077437 21.044121 22.094104 20.947887 22.138184 20.920687 C 22.29041 20.826607 22.225205 20.527946 22.052401 20.527946 z M 15.184086 21.984705 C 15.091289 21.98987 15.000181 22.058433 14.982031 22.186243 C 14.955741 22.371373 15.045671 22.434331 15.27297 22.389331 C 15.320251 22.379971 15.290584 22.447626 15.206824 22.540226 C 15.001057 22.767596 15.01509 22.906529 15.253333 22.996529 C 15.672029 23.154629 15.954883 22.707247 15.595431 22.455477 C 15.503954 22.391397 15.414083 22.259788 15.395443 22.162988 C 15.371283 22.037518 15.276883 21.97954 15.184086 21.984705 z M 15.947347 23.048722 C 15.701027 23.048722 15.532578 23.269901 15.615068 23.484871 C 15.657177 23.594571 15.72676 23.618538 15.871899 23.573238 C 16.256755 23.453128 16.31499 23.048722 15.947347 23.048722 z M 16.376261 23.460583 C 16.30878 23.453179 16.233081 23.474304 16.158704 23.536031 C 15.998773 23.668771 15.985385 24.034087 16.138033 24.095687 C 16.320878 24.169467 16.347195 24.161028 16.51062 23.980448 C 16.707839 23.762521 16.578706 23.482798 16.376261 23.460583 z M 16.887858 24.00732 C 16.62994 24.021599 16.430627 24.350563 16.621208 24.541138 L 16.621208 24.541654 C 16.65587 24.576454 16.785099 24.592745 16.908529 24.578345 C 17.211335 24.543035 17.283056 24.11129 17.001029 24.02179 C 16.962772 24.009647 16.924704 24.00528 16.887858 24.00732 z M 20.007048 24.065715 C 19.753938 24.065715 19.672433 24.326479 19.878373 24.477059 L 19.878373 24.477576 C 20.018486 24.579966 20.062859 24.578865 20.170345 24.471375 C 20.335899 24.305825 20.239052 24.065715 20.007048 24.065715 z M 17.347262 24.585063 C 17.297858 24.590048 17.265613 24.605164 17.265613 24.633122 C 17.265613 24.653472 17.243123 24.727786 17.216003 24.798486 C 17.188883 24.869166 17.231848 24.992138 17.311088 25.071338 C 17.579892 25.340138 17.96695 25.090358 17.830953 24.735958 C 17.796352 24.6458 17.495472 24.570106 17.347262 24.585063 z M 19.433439 24.640356 C 19.117194 24.640356 19.014368 24.917503 19.262907 25.099243 C 19.532892 25.296653 19.772338 25.168953 19.727478 24.851713 C 19.703622 24.683013 19.644529 24.640356 19.433439 24.640356 z M 18.125509 25.153503 C 17.937168 25.126655 17.707676 25.227344 17.610295 25.409302 C 17.523526 25.571432 17.536791 25.62551 17.696077 25.7545 C 17.799837 25.83852 17.884696 25.951665 17.884696 26.006165 C 17.884696 26.060685 17.945362 26.12856 18.019572 26.15706 C 18.123352 26.19689 18.130962 26.236993 18.053162 26.330693 C 17.997502 26.397723 17.973231 26.532733 17.998901 26.630933 C 18.029281 26.747113 17.989255 26.839516 17.884696 26.895516 C 17.75641 26.964176 17.733595 27.052969 17.771525 27.335799 C 17.800395 27.551059 17.777297 27.740891 17.712097 27.819491 C 17.653077 27.890581 17.62908 28.025314 17.65887 28.119214 C 17.693638 28.228774 17.664598 28.308639 17.577738 28.341939 C 17.416312 28.403879 17.400122 28.6754 17.5488 28.82408 C 17.63135 28.90661 17.63135 28.930017 17.5488 28.930017 C 17.490428 28.930017 17.442346 29.007183 17.442346 29.101583 C 17.442346 29.196003 17.402619 29.297826 17.353979 29.327926 C 17.22873 29.405336 17.244199 29.702506 17.3762 29.755806 C 17.556293 29.828486 17.592182 29.820677 17.704346 29.685527 C 17.763096 29.614687 17.785545 29.514935 17.753955 29.463835 C 17.722357 29.412725 17.758434 29.347107 17.834054 29.318107 C 17.918216 29.285817 17.971182 29.157708 17.970996 28.987378 C 17.97033 28.380138 17.987346 28.284244 18.11724 28.154354 C 18.19142 28.080174 18.232754 27.945664 18.209224 27.855664 C 18.185694 27.765684 18.200411 27.670941 18.241781 27.645341 C 18.283151 27.619771 18.306357 27.419904 18.293457 27.200924 C 18.278512 26.947254 18.314135 26.766146 18.391125 26.702246 C 18.457585 26.647086 18.489836 26.54497 18.462956 26.47487 C 18.434987 26.40198 18.508672 26.272879 18.635555 26.173079 C 18.757516 26.077149 18.857764 25.941723 18.857764 25.872323 C 18.857764 25.802873 18.933115 25.746232 19.025195 25.746232 C 19.2389 25.746232 19.326852 25.525002 19.166272 25.391732 C 19.098631 25.335532 18.90667 25.301367 18.739425 25.315767 C 18.57218 25.330137 18.371227 25.2888 18.293457 25.2243 C 18.246323 25.185183 18.188289 25.162453 18.125509 25.153503 z M 17.269747 29.903084 C 17.071039 29.903084 16.99976 30.111247 17.0217 30.624487 C 17.029309 30.802437 16.982027 31.012009 16.916797 31.090609 C 16.851617 31.169209 16.823942 31.259197 16.855302 31.290597 C 16.886658 31.321957 16.846725 31.419954 16.766935 31.508154 C 16.642217 31.645974 16.639169 31.689329 16.744714 31.817179 C 16.840134 31.932799 16.843047 31.974315 16.757117 32.003215 C 16.696313 32.023675 16.646529 32.139106 16.646529 32.260046 C 16.646529 32.437466 16.684898 32.474566 16.845483 32.451766 C 17.057202 32.421696 17.194097 32.025435 16.992761 32.025435 C 16.924241 32.025435 16.942554 31.961122 17.042887 31.850252 C 17.172657 31.706852 17.181143 31.65063 17.089913 31.54071 C 16.998004 31.42998 17.003642 31.406352 17.121952 31.406352 C 17.265571 31.406352 17.299734 31.320414 17.270264 31.030664 C 17.261604 30.945494 17.299316 30.875635 17.354496 30.875635 C 17.409676 30.875635 17.446338 30.786131 17.435628 30.676681 C 17.424908 30.567231 17.446411 30.407797 17.483171 30.322697 C 17.578659 30.101567 17.47733 29.903084 17.269747 29.903084 z M 16.720426 32.572172 C 16.530613 32.600172 16.091479 33.240366 16.172139 33.371606 C 16.193716 33.406716 16.150148 33.529231 16.074988 33.643941 C 15.999868 33.758641 15.964656 33.879325 15.996956 33.911625 C 16.029257 33.943925 15.984924 34.048369 15.898254 34.144169 C 15.811576 34.239939 15.762921 34.376827 15.790251 34.448027 C 15.817577 34.519247 15.779995 34.627322 15.706535 34.688322 C 15.633085 34.749282 15.59011 34.865621 15.61145 34.947221 C 15.63279 35.028841 15.613469 35.161477 15.568559 35.241777 C 15.523747 35.321842 15.511616 35.42638 15.54117 35.474837 C 15.613795 35.592757 15.913315 35.587366 15.987655 35.467086 C 16.020345 35.414206 16.004438 35.327766 15.951998 35.275366 C 15.88383 35.207196 15.89987 35.148227 16.008325 35.067627 C 16.135955 34.972827 16.142283 34.925915 16.048633 34.772555 C 15.951115 34.612885 15.958684 34.590137 16.109094 34.590137 C 16.272218 34.590137 16.452744 34.278525 16.34939 34.175175 C 16.322938 34.148725 16.361776 34.066124 16.436206 33.991724 C 16.510636 33.917304 16.55282 33.784434 16.52974 33.696134 C 16.506667 33.607894 16.543449 33.489501 16.611389 33.433101 C 16.679333 33.376711 16.734896 33.288764 16.734896 33.237764 C 16.734896 33.186754 16.79917 33.073717 16.87804 32.986617 C 17.064539 32.780537 16.971266 32.535172 16.720426 32.572172 z M 15.449703 35.620565 C 15.291442 35.681295 15.280023 35.930445 15.428516 36.078935 C 15.571288 36.221725 15.796832 36.173662 15.831592 35.993152 C 15.867934 35.804442 15.614647 35.557265 15.449703 35.620565 z M 15.228528 36.208126 C 15.091703 36.242153 14.966012 36.387208 14.966012 36.547123 C 14.966012 36.638473 14.926285 36.713005 14.877645 36.713005 C 14.778845 36.713005 14.756439 37.004744 14.848189 37.096444 C 14.958347 37.206614 15.148377 37.155686 15.207857 37.000326 C 15.240448 36.915206 15.345318 36.782336 15.440918 36.704736 C 15.631252 36.550346 15.592742 36.302244 15.364954 36.214844 C 15.321147 36.198034 15.274136 36.196783 15.228528 36.208126 z M 14.78256 37.247856 C 14.692985 37.260451 14.60647 37.308541 14.577405 37.384281 C 14.547745 37.461631 14.543867 37.558355 14.569137 37.599255 C 14.594417 37.640165 14.574652 37.698363 14.525212 37.728963 C 14.475772 37.759513 14.435295 37.86194 14.435295 37.95634 C 14.435295 38.0658 14.495961 38.127905 14.602726 38.127905 C 14.804944 38.127905 14.90189 37.922184 14.764473 37.784774 C 14.691141 37.711474 14.702201 37.686072 14.806331 37.686072 C 14.958815 37.686072 15.085936 37.45432 15.005286 37.32382 C 14.964543 37.2579 14.872135 37.235261 14.78256 37.247856 z M 14.41204 38.322209 C 14.30584 38.342776 14.204187 38.415534 14.184147 38.525814 C 14.166467 38.623094 14.091589 38.771176 14.017749 38.854476 C 13.943859 38.937796 13.906893 39.066997 13.935583 39.141797 C 14.007095 39.328127 14.233518 39.312798 14.339693 39.114408 C 14.400463 39.000858 14.394553 38.918641 14.320573 38.844141 C 14.237472 38.760341 14.244879 38.748597 14.354679 38.790397 C 14.530962 38.857457 14.738535 38.619726 14.666805 38.432796 C 14.628801 38.333746 14.51824 38.301641 14.41204 38.322209 z M 13.7604 39.214661 C 13.612219 39.165921 13.373458 39.438995 13.431738 39.590865 C 13.459438 39.663045 13.432867 39.781498 13.372827 39.853898 C 13.288007 39.956128 13.287547 40.013797 13.369727 40.112797 C 13.525323 40.300277 13.75157 40.178713 13.70459 39.932963 C 13.680874 39.808873 13.714976 39.710082 13.791406 39.680782 C 13.935494 39.625492 13.911506 39.264361 13.7604 39.214661 z M 13.290662 40.33914 C 13.096294 40.33914 12.982659 40.47211 13.064319 40.60424 C 13.166258 40.76922 13.462227 40.703463 13.462227 40.515873 C 13.462227 40.399783 13.403366 40.33914 13.290662 40.33914 z M 13.073104 40.825415 C 12.867665 40.825415 12.707746 41.06194 12.782166 41.25588 C 12.850927 41.4351 13.051711 41.442759 13.19351 41.271899 C 13.343089 41.091669 13.271413 40.825415 13.073104 40.825415 z M 12.391492 41.427445 C 12.250531 41.466365 12.126594 41.620806 12.163599 41.762309 C 12.189046 41.859599 12.142731 41.931596 12.036991 41.959196 C 11.92783 41.987746 11.870593 42.082274 11.870593 42.232564 C 11.870593 42.588634 12.153861 42.521623 12.429732 42.100273 C 12.698207 41.690203 12.726337 41.506496 12.532568 41.432096 C 12.487065 41.414634 12.438479 41.414472 12.391492 41.427445 z M 11.772925 42.520919 C 11.401059 42.581653 10.83122 43.249914 11.048938 43.467631 C 11.179504 43.598201 11.47269 43.476526 11.50059 43.280046 C 11.520252 43.141556 11.589178 43.081091 11.726416 43.081091 C 12.139906 43.081091 12.273769 42.697898 11.917102 42.535388 C 11.874931 42.516173 11.826048 42.512243 11.772925 42.520919 z M 10.918713 43.577185 C 10.857915 43.566206 10.787581 43.575846 10.714591 43.614909 C 10.523111 43.717389 10.485108 44.015214 10.654647 44.083614 C 10.837351 44.157344 10.879103 44.148029 11.024133 44.002999 C 11.197974 43.829156 11.101107 43.610121 10.918713 43.577185 z M 10.362158 44.07948 C 10.312942 44.091843 10.262363 44.120365 10.215397 44.16733 C 10.138417 44.2443 10.102022 44.369734 10.133232 44.451034 C 10.217087 44.669564 10.581526 44.586593 10.616406 44.340963 C 10.643405 44.150808 10.509806 44.042391 10.362158 44.07948 z M 9.8324748 44.612264 C 9.7807617 44.619496 9.7242277 44.637986 9.6660767 44.669108 C 9.4639937 44.777258 9.4186209 45.074648 9.5932129 45.145048 C 9.8734189 45.258108 10.101709 45.116295 10.101709 44.829305 C 10.101709 44.67179 9.9876141 44.590568 9.8324748 44.612264 z M 9.4872762 45.242716 C 9.4334735 45.241667 9.3728106 45.255661 9.3110596 45.288708 C 9.1086296 45.397048 9.0768095 45.558305 9.2278605 45.709355 C 9.3515515 45.833045 9.5491285 45.763322 9.6598755 45.556392 C 9.7513837 45.385437 9.6486844 45.245865 9.4872762 45.242716 z M 8.8165161 45.645793 C 8.5803911 45.645793 8.3926617 45.910107 8.4754517 46.125867 C 8.5424607 46.300437 8.8950167 46.306872 9.0366577 46.136202 C 9.1985717 45.941112 9.0660751 45.645793 8.8165161 45.645793 z M 8.244458 46.17651 C 8.043802 46.17651 7.9315005 46.367568 8.0108805 46.574418 C 8.0760335 46.744078 8.2797169 46.744672 8.4201579 46.575452 C 8.5671139 46.398382 8.469477 46.17651 8.244458 46.17651 z M 7.5907511 46.751152 C 7.3481511 46.751152 7.2070843 47.009777 7.3535563 47.186267 C 7.4174963 47.263287 7.4951088 47.32551 7.5256388 47.32476 C 7.8335538 47.31725 7.8978151 46.751152 7.5907511 46.751152 z " /></svg>
