<?xml version="1.0" encoding="UTF-8" standalone="no"?>
<!-- Created with Inkscape (http://www.inkscape.org/) -->

<svg
   width="25.4mm"
   height="128.5mm"
   viewBox="0 0 25.400002 128.50002"
   version="1.1"
   id="svg8"
   inkscape:version="1.4 (e7c3feb1, 2024-10-09)"
   sodipodi:docname="Norbert.svg"
   xml:space="preserve"
   xmlns:inkscape="http://www.inkscape.org/namespaces/inkscape"
   xmlns:sodipodi="http://sodipodi.sourceforge.net/DTD/sodipodi-0.dtd"
   xmlns="http://www.w3.org/2000/svg"
   xmlns:svg="http://www.w3.org/2000/svg"
   xmlns:rdf="http://www.w3.org/1999/02/22-rdf-syntax-ns#"
   xmlns:cc="http://creativecommons.org/ns#"
   xmlns:dc="http://purl.org/dc/elements/1.1/"><defs
     id="defs2" /><sodipodi:namedview
     id="base"
     pagecolor="#ffffff"
     bordercolor="#666666"
     borderopacity="1.0"
     inkscape:pageopacity="0.0"
     inkscape:pageshadow="2"
     inkscape:zoom="5.0946673"
     inkscape:cx="57.805541"
     inkscape:cy="458.51865"
     inkscape:document-units="mm"
     inkscape:current-layer="svg8"
     showgrid="true"
     units="mm"
     inkscape:snap-bbox="true"
     inkscape:snap-page="true"
     inkscape:bbox-nodes="false"
     inkscape:snap-bbox-edge-midpoints="false"
     inkscape:window-width="1440"
     inkscape:window-height="847"
     inkscape:window-x="0"
     inkscape:window-y="25"
     inkscape:window-maximized="0"
     inkscape:snap-bbox-midpoints="true"
     inkscape:snap-nodes="false"
     inkscape:showpageshadow="2"
     inkscape:pagecheckerboard="0"
     inkscape:deskcolor="#d1d1d1"><inkscape:grid
       id="grid1"
       units="mm"
       originx="0"
       originy="0"
       spacingx="1.0000001"
       spacingy="1.0000002"
       empcolor="#0099e5"
       empopacity="0.30196078"
       color="#0099e5"
       opacity="0.14901961"
       empspacing="5"
       enabled="true"
       visible="true" /></sodipodi:namedview><metadata
     id="metadata5"><rdf:RDF><cc:Work
         rdf:about=""><dc:format>image/svg+xml</dc:format><dc:type
           rdf:resource="http://purl.org/dc/dcmitype/StillImage" /></cc:Work></rdf:RDF></metadata><g
     inkscape:label="Layer 1"
     inkscape:groupmode="layer"
     id="layer1"
     transform="translate(0,-168.49998)"><rect
       style="display:inline;fill:#e6e6e6;fill-opacity:1;stroke:none;stroke-width:0.496233;stroke-linecap:round;stroke-linejoin:round;stroke-opacity:1"
       id="rect10"
       width="25.4"
       height="128.5"
       x="0"
       y="168.49998" /></g><path
     id="path1-2"
     style="fill:#00a4e9;fill-opacity:1;stroke-width:0.714249"
     inkscape:label="Azul"
     d="M 2.8809611 180.08222 L 2.83962 180.20262 C 2.782145 180.36989 2.7848128 180.42414 2.8597738 180.57883 L 2.9248861 180.7137 L 4.4157511 180.7814 C 5.2357429 180.8192 6.357802 180.82687 6.909139 180.79897 C 7.460475 180.77097 8.1081383 180.86861 9.2051229 180.89561 L 11.901082 180.84651 L 11.978597 180.7013 L 12.056112 180.55661 L 12.009086 180.40003 L 11.962061 180.24345 L 9.941512 180.18454 C 8.8304835 180.15214 7.4805167 180.1485 6.9416951 180.1773 C 6.4028685 180.2057 6.2708191 180.24529 5.4234416 180.20469 L 2.8809611 180.08222 z M 7.7085734 196.9339 C 4.4156132 196.98605 1.2966318 200.97739 3.1527791 204.22338 C 4.4653818 206.51885 7.4843047 207.53034 9.4381836 206.3292 C 12.710713 204.31741 13.311045 200.84907 11.085111 198.51055 C 10.767137 198.17645 10.391286 197.86549 9.9575317 197.58503 C 9.2380845 197.11994 8.4684873 196.92187 7.7085734 196.9339 z M 7.7338949 225.66703 C 3.8692532 225.74234 1.0301176 231.29676 4.0726196 234.10631 C 5.2047675 235.15178 7.4164775 235.68002 8.6191121 235.19203 C 12.950823 233.4344 13.659619 228.63658 10.535274 226.54347 C 10.088958 226.24442 9.5646102 226.00062 8.9612101 225.82878 C 8.5448562 225.71019 8.1336854 225.65924 7.7338949 225.66703 z M 12.563574 263.62234 C 10.839351 263.67834 9.1215663 264.60489 8.2826986 266.37308 C 6.8567685 269.37869 8.1302966 272.06418 11.459249 273.07086 C 14.408653 273.96277 17.150562 271.61683 17.256311 268.11095 L 17.293001 266.89966 L 16.885274 266.09402 C 16.019058 264.38125 14.287797 263.5663 12.563574 263.62234 z "
     transform="translate(0,-168.49998)" /><path
     id="path4"
     style="fill:#ff4253;fill-opacity:1;stroke-width:1.07223"
     inkscape:label="Rojo"
     transform="translate(0,-168.49998)"
     d="m 15.680259,279.12527 c -4.45059,-3.44809 -10.778985,2.2695 -6.7300048,7.06426 1.2766328,1.51178 3.7742218,1.85532 5.5371718,0.76122 0.222,-0.13779 0.660288,-0.38242 0.974576,-0.54369 2.339615,-1.20053 2.877655,-4.42191 1.079627,-6.46683 -0.276352,-0.31438 -0.564648,-0.5851 -0.861364,-0.81497 z m 8.049182,14.31401 -0.121957,0.10129 c -0.06709,0.0557 -0.121956,0.1557 -0.121956,0.2222 0,0.0665 -0.100839,0.18679 -0.224276,0.26769 l -0.224792,0.14728 -0.337964,-0.2341 -0.337964,-0.23461 h -0.358634 -0.358635 l -0.205672,0.21859 -0.205155,0.21859 0.05323,0.1385 c 0.07124,0.18563 0.177098,0.17399 0.371037,-0.0403 l 0.161231,-0.17828 h 0.197404 c 0.10845,0 0.292772,0.074 0.409794,0.16484 0.117023,0.0908 0.273149,0.18801 0.346749,0.21601 v 5.2e-4 c 0.0736,0.028 0.220988,0.0539 0.327628,0.0579 l 0.193787,0.007 0.269751,-0.22686 c 0.148349,-0.12483 0.295385,-0.30736 0.326595,-0.40566 l 0.05684,-0.1788 -0.108521,-0.13074 z m 0.116272,1.34049 -0.176217,0.34571 -0.176216,0.3452 -0.174667,0.046 c -0.177046,0.0463 -0.327249,-0.0184 -0.765328,-0.32814 l -0.241845,-0.17053 h -0.253215 c -0.282609,0 -0.695876,0.23576 -0.775146,0.44235 l -0.05168,0.13435 0.09457,0.0946 0.09457,0.0951 0.241846,-0.19017 c 0.319133,-0.25107 0.452975,-0.23828 0.930692,0.0868 l 0.401526,0.27337 0.298173,-0.0475 c 0.589975,-0.094 1.213289,-1.12706 0.680062,-1.12706 z" /><g
     inkscape:groupmode="layer"
     id="layer2"
     inkscape:label="components" /></svg>
